<?xml version="1.0" standalone="no"?>
<!DOCTYPE svg PUBLIC "-//W3C//DTD SVG 1.1//EN" "http://www.w3.org/Graphics/SVG/1.1/DTD/svg11.dtd" >
<svg xmlns="http://www.w3.org/2000/svg" xmlns:xlink="http://www.w3.org/1999/xlink" version="1.1">
<metadata>
Created by FontForge 20201107 at Wed Jul  1 11:26:05 2009
 By Jimmy Wärting
4.1 (c)1986-92 by Richard A. Ware. All Rights Reserved.
</metadata>
<defs>
<font id="SansSerifBookFLF" horiz-adv-x="327" >
  <font-face 
    font-family="SansSerifBookFLF"
    font-weight="550"
    font-stretch="normal"
    units-per-em="1000"
    panose-1="2 0 6 3 2 0 0 2 0 3"
    ascent="800"
    descent="-200"
    x-height="413"
    cap-height="714"
    bbox="-40 -196 1063 916"
    underline-thickness="19"
    underline-position="-133"
    stemh="60"
    stemv="59"
    unicode-range="U+0020-FB02"
  />
<missing-glyph horiz-adv-x="500" 
 />
    <glyph glyph-name="fi" unicode="fi" horiz-adv-x="388" 
d="M87 357h-56v56h56v180c0 83 56 127 125 127c86 0 123 -50 123 -127v-23h-56v13c0 50 -20 81 -67 81c-46 0 -69 -26 -69 -69v-182h98v-56h-98v-357h-56v357zM332 413v-413h-56v413h56z" />
    <glyph glyph-name="fl" unicode="fl" horiz-adv-x="384" 
d="M276 0v599c0 40 -20 65 -66 65s-67 -26 -67 -64v-187h98v-56h-98v-357h-56v357h-56v56h56v203c0 59 52 104 123 104c73 0 122 -45 122 -104v-616h-56z" />
    <glyph glyph-name=".notdef" horiz-adv-x="500" 
 />
    <glyph glyph-name="NUL" unicode="&#xe002;" horiz-adv-x="0" 
 />
    <glyph glyph-name="Eth" unicode="&#xd0;" horiz-adv-x="686" 
d="M79 380v334h238c179 0 319 -148 319 -357s-140 -357 -319 -357h-238v329h-44v51h44zM140 380h166v-51h-166v-268h159c159 0 275 118 275 296c0 179 -116 296 -275 296h-159v-273z" />
    <glyph glyph-name="eth" unicode="&#xf0;" horiz-adv-x="501" 
d="M93 205c0 -87 71 -158 158 -158s158 71 158 158s-71 158 -158 158s-158 -71 -158 -158zM465 206c0 -118 -96 -214 -214 -214s-214 96 -214 214s96 214 214 214c58 0 110 -23 149 -60c-25 108 -87 176 -140 215l-94 -59l-44 28l95 61c-34 20 -70 36 -105 48l39 39
c39 -12 78 -31 116 -56l97 60l44 -28l-101 -63c96 -83 158 -196 158 -399z" />
    <glyph glyph-name="Lslash" unicode="&#x141;" horiz-adv-x="371" 
d="M140 279v-218h180v-61h-241v229l-61 -61v75l61 61v410h61v-360c0 1 96 96 96 96v-75z" />
    <glyph glyph-name="lslash" unicode="&#x142;" horiz-adv-x="197" 
d="M130 272v-272h-57v223l-55 -55v75l55 55v442h57v-393l55 55v-75z" />
    <glyph glyph-name="Scaron" unicode="&#x160;" horiz-adv-x="492" 
d="M369 587c-26 45 -60 70 -117 70c-76 0 -117 -42 -117 -104c0 -57 60 -87 123 -124c92 -54 203 -116 203 -245c0 -107 -78 -190 -200 -190c-123 0 -187 63 -224 149l56 25c27 -67 77 -113 168 -113c83 0 139 55 139 129c0 90 -76 134 -148 177c-93 55 -179 86 -179 192
c0 96 72 165 179 165c92 0 142 -50 172 -104zM160 897l95 -95l94 94l26 -26l-120 -120l-121 121z" />
    <glyph glyph-name="scaron" unicode="&#x161;" horiz-adv-x="343" 
d="M269 326c-16 19 -37 37 -83 37c-53 0 -78 -22 -78 -55c0 -30 29 -48 77 -61c79 -22 136 -59 136 -129c0 -78 -68 -124 -145 -124s-118 33 -145 75l47 29c20 -29 44 -48 98 -48c47 0 89 26 89 68c0 43 -44 60 -99 77c-60 18 -114 38 -114 113c0 65 56 111 134 111
c65 0 100 -26 128 -60zM90 617l95 -95l94 94l26 -26l-120 -120l-121 121z" />
    <glyph glyph-name="Yacute" unicode="&#xdd;" horiz-adv-x="499" 
d="M89 714l162 -293l163 293h64l-197 -352v-362h-61v362l-194 352h63zM369 860l-111 -111l-28 28l111 111z" />
    <glyph glyph-name="yacute" unicode="&#xfd;" horiz-adv-x="438" 
d="M241 134l127 279h59l-272 -597h-59l116 255l-184 342h63zM366 605l-133 -133l-28 28l133 133z" />
    <glyph glyph-name="HT" unicode="&#xe001;" horiz-adv-x="0" 
 />
    <glyph glyph-name="Thorn" unicode="&#xde;" horiz-adv-x="481" 
d="M248 261c81 0 133 51 133 118c0 66 -52 117 -133 117h-113v-235h113zM248 557c118 0 194 -76 194 -178s-76 -179 -194 -179h-113v-200h-62v714h62v-157h113z" />
    <glyph glyph-name="thorn" unicode="&#xfe;" horiz-adv-x="537" 
d="M287 420c118 0 214 -96 214 -214s-96 -214 -214 -214c-64 0 -122 29 -161 74v-262h-56v936h56v-393c39 44 96 73 161 73zM129 205c0 -87 71 -158 158 -158s158 71 158 158s-71 158 -158 158s-158 -71 -158 -158z" />
    <glyph glyph-name="CR" unicode="&#xe000;" horiz-adv-x="0" 
 />
    <glyph glyph-name="Zcaron" unicode="&#x17d;" horiz-adv-x="558" 
d="M514 714l-367 -653h367v-61h-475l375 653h-351v61h451zM190 897l95 -95l94 94l26 -26l-120 -120l-121 121z" />
    <glyph glyph-name="zcaron" unicode="&#x17e;" horiz-adv-x="442" 
d="M400 413l-251 -357h244v-56h-351l250 357h-242v56h350zM130 617l95 -95l94 94l26 -26l-120 -120l-121 121z" />
    <glyph glyph-name="onehalf" unicode="&#xbd;" 
d="M279 380v-31h-235v31h235zM176 732v-322h-28v294h-48l12 28h64zM68 248c7 40 35 77 94 77c53 0 91 -34 91 -86c0 -49 -24 -83 -52 -116l-79 -95h133v-27h-194l118 139c22 26 46 59 46 99c0 35 -26 59 -63 59c-41 0 -62 -26 -67 -50h-27z" />
    <glyph glyph-name="onequarter" unicode="&#xbc;" 
d="M280 380v-31h-235v31h235zM176 732v-322h-28v294h-48l12 28h64zM224 84h29v-28h-29v-61h-28v61h-156l184 265v-237zM196 84v153l-105 -153h105z" />
    <glyph glyph-name="onesuperior" unicode="&#xb9;" 
d="M176 732v-322h-28v294h-48l12 28h64z" />
    <glyph glyph-name="threequarters" unicode="&#xbe;" 
d="M278 380v-31h-235v31h235zM83 664c3 39 34 73 87 73c51 0 87 -35 87 -81c0 -39 -21 -63 -47 -72c27 -9 49 -37 49 -81c0 -53 -39 -95 -89 -95c-52 0 -85 27 -91 71h28c5 -27 27 -44 63 -44c33 0 61 29 61 68c0 47 -34 67 -61 67h-16v28h16c25 0 59 17 59 58
c0 33 -28 53 -59 53c-34 0 -55 -20 -59 -45h-28zM234 84h29v-28h-29v-61h-28v61h-156l184 265v-237zM206 84v153l-105 -153h105z" />
    <glyph glyph-name="threesuperior" unicode="&#xb3;" 
d="M83 664c3 39 34 73 87 73c51 0 87 -35 87 -81c0 -39 -21 -63 -47 -72c27 -9 49 -37 49 -81c0 -53 -39 -95 -89 -95c-52 0 -85 27 -91 71h28c5 -27 27 -44 63 -44c33 0 61 29 61 68c0 47 -34 67 -61 67h-16v28h16c25 0 59 17 59 58c0 33 -28 53 -59 53
c-34 0 -55 -20 -59 -45h-28z" />
    <glyph glyph-name="twosuperior" unicode="&#xb2;" 
d="M67 653c7 40 35 77 94 77c53 0 91 -34 91 -86c0 -49 -24 -83 -52 -116l-79 -95h133v-27h-194l118 139c22 26 46 59 46 99c0 35 -26 59 -63 59c-41 0 -62 -26 -67 -50h-27z" />
    <glyph glyph-name="brokenbar" unicode="&#xa6;" horiz-adv-x="156" 
d="M104 327v-327h-50v327h50zM54 436v319h50v-319h-50z" />
    <glyph glyph-name="minus" unicode="&#x2212;" horiz-adv-x="464" 
d="M407 295v-51h-350v51h350z" />
    <glyph glyph-name="multiply" unicode="&#xd7;" horiz-adv-x="361" 
d="M81 413l105 -162l106 162l40 -26l-118 -181l118 -181l-41 -25l-105 162l-105 -162l-41 25l117 181l-116 181z" />
    <glyph glyph-name="space" unicode=" " horiz-adv-x="276" 
 />
    <glyph glyph-name="exclam" unicode="!" horiz-adv-x="199" 
d="M133 148h-62v566h62v-566zM144 33c0 -23 -19 -42 -42 -42s-42 19 -42 42s19 42 42 42s42 -19 42 -42z" />
    <glyph glyph-name="quotedbl" unicode="&#x22;" horiz-adv-x="301" 
d="M240 727l-10 -160h-31l-10 160h51zM117 727l-10 -160h-30l-11 160h51z" />
    <glyph glyph-name="numbersign" unicode="#" horiz-adv-x="541" 
d="M239 522h108l30 120h30l-30 -120h112l-8 -30h-112l-28 -114h111l-7 -31h-112l-31 -125h-30l31 125h-108l-30 -120h-30l30 120h-109l10 31h107l29 114h-111l8 30h110l30 120h30zM203 378h108l28 114h-107z" />
    <glyph glyph-name="dollar" unicode="$" horiz-adv-x="474" 
d="M273 56c73 5 115 55 115 133s-67 126 -115 157v-290zM217 770h56v-54c71 -7 114 -48 139 -102l-55 -27c-16 36 -44 60 -84 68v-239c65 -38 176 -106 176 -227c0 -116 -68 -187 -176 -194v-56h-56v56c-103 10 -173 71 -193 150l58 23c14 -56 59 -103 135 -111v321
c-88 52 -156 83 -156 175c0 91 68 153 156 163v54zM217 446v209c-58 -9 -95 -47 -95 -103c0 -55 51 -77 95 -106z" />
    <glyph glyph-name="percent" unicode="%" horiz-adv-x="580" 
d="M297 571c0 -73 -61 -133 -135 -133c-73 0 -134 60 -134 133c0 75 60 135 134 135c75 0 135 -60 135 -135zM162 489c46 0 84 36 84 82s-38 84 -84 84s-83 -38 -83 -84s37 -82 83 -82zM124 0h-51l388 714h51zM553 140c0 -75 -60 -134 -135 -134c-74 0 -134 59 -134 134
c0 74 60 134 134 134c75 0 135 -60 135 -134zM418 57c46 0 84 37 84 83s-38 83 -84 83s-83 -37 -83 -83s37 -83 83 -83z" />
    <glyph glyph-name="ampersand" unicode="&#x26;" horiz-adv-x="567" 
d="M448 0l-54 83c-67 -48 -115 -87 -202 -87c-98 0 -169 65 -169 173c0 98 78 160 168 222l-39 57c-23 35 -38 69 -38 120c0 80 68 148 159 148c84 0 161 -56 161 -141c0 -71 -39 -117 -98 -157l-62 -42l136 -206l109 79l36 -50l-111 -80l77 -119h-73zM298 467
c45 32 74 58 74 108c0 41 -39 80 -99 80c-62 0 -97 -39 -97 -87c0 -31 8 -55 29 -87l36 -54zM85 169c0 -69 48 -112 107 -112c48 0 96 26 167 78l-135 205c-80 -55 -139 -95 -139 -171z" />
    <glyph glyph-name="quotesingle" unicode="'" horiz-adv-x="179" 
d="M117 727l-10 -160h-30l-11 160h51z" />
    <glyph glyph-name="parenleft" unicode="(" horiz-adv-x="196" 
d="M103 346c0 -82 9 -240 59 -408h-61c-45 154 -59 306 -59 408s14 254 59 408h61c-47 -156 -59 -326 -59 -408z" />
    <glyph glyph-name="parenright" unicode=")" horiz-adv-x="196" 
d="M99 346c0 82 -9 240 -59 408h61c45 -154 59 -306 59 -408s-14 -254 -59 -408h-61c47 156 59 326 59 408z" />
    <glyph glyph-name="asterisk" unicode="*" horiz-adv-x="231" 
d="M204 571c0 -8 -6 -18 -18 -18c-21 0 -49 31 -66 49c9 -23 16 -43 16 -65c0 -13 -4 -24 -18 -24c-15 0 -19 12 -19 28c0 22 6 37 13 61c-16 -20 -43 -52 -64 -52c-10 0 -17 8 -17 19c0 24 52 34 77 39c-26 5 -77 16 -77 39c0 9 6 19 17 19c20 0 47 -31 64 -52
c-9 27 -13 43 -13 61c0 16 4 28 19 28c14 0 18 -11 18 -24c0 -20 -6 -39 -16 -65c23 24 44 49 66 49c10 0 18 -7 18 -18c0 -22 -47 -31 -80 -37c32 -4 80 -16 80 -37z" />
    <glyph glyph-name="plus" unicode="+" horiz-adv-x="378" 
d="M164 295v97h51v-97h102v-51h-102v-102h-51v102h-102v51h102z" />
    <glyph glyph-name="comma" unicode="," horiz-adv-x="173" 
d="M145 49l-111 -183l-24 15l90 188z" />
    <glyph glyph-name="hyphen" unicode="-" horiz-adv-x="306" 
d="M256 295v-51h-206v51h206z" />
    <glyph glyph-name="period" unicode="." horiz-adv-x="184" 
d="M138 39c0 -25 -21 -46 -46 -46s-46 21 -46 46s21 46 46 46s46 -21 46 -46z" />
    <glyph glyph-name="slash" unicode="/" horiz-adv-x="281" 
d="M74 0h-51l205 714h51z" />
    <glyph glyph-name="zero" unicode="0" horiz-adv-x="592" 
d="M29 357c0 177 86 365 267 365s266 -188 266 -365c0 -176 -78 -367 -266 -367c-187 0 -267 190 -267 367zM501 357c0 143 -64 304 -205 304s-205 -161 -205 -304c0 -144 64 -306 205 -306s205 162 205 306z" />
    <glyph glyph-name="one" unicode="1" horiz-adv-x="592" 
d="M351 714v-714h-61v653h-107l26 61h142z" />
    <glyph glyph-name="two" unicode="2" horiz-adv-x="592" 
d="M87 551c15 87 78 171 209 171c118 0 202 -77 202 -191c0 -110 -53 -186 -116 -260l-176 -210h297v-61h-432l263 310c48 57 103 130 103 221c0 77 -58 130 -141 130c-92 0 -138 -57 -148 -110h-61z" />
    <glyph glyph-name="three" unicode="3" horiz-adv-x="592" 
d="M102 561c7 88 76 162 193 162c113 0 193 -78 193 -180c0 -86 -45 -139 -104 -159c60 -20 108 -82 108 -181c0 -118 -85 -211 -197 -211c-116 0 -188 61 -201 159h61c11 -60 61 -98 140 -98c74 0 136 64 136 150c0 104 -76 150 -135 150h-37v61h37c55 0 131 38 131 129
c0 73 -62 119 -132 119c-76 0 -123 -46 -131 -101h-62z" />
    <glyph glyph-name="four" unicode="4" horiz-adv-x="592" 
d="M464 197h64v-61h-64v-136h-61v136h-348l409 588v-527zM403 197v341l-234 -341h234z" />
    <glyph glyph-name="five" unicode="5" horiz-adv-x="592" 
d="M221 714h271v-61h-227l-45 -164c19 5 36 10 71 10c153 0 251 -106 251 -248c0 -155 -112 -261 -254 -261c-153 0 -206 88 -232 151l51 28c26 -58 74 -118 181 -118c111 0 193 77 193 200c0 100 -66 187 -190 187c-76 0 -119 -18 -153 -34z" />
    <glyph glyph-name="six" unicode="6" horiz-adv-x="592" 
d="M337 714l-151 -276c9 6 48 30 115 30c147 0 250 -102 250 -238c0 -133 -98 -245 -249 -245c-155 0 -249 105 -249 245c0 68 19 119 44 163l179 321h61zM302 46c111 0 188 75 188 184c0 101 -81 177 -189 177c-110 0 -187 -76 -187 -177c0 -108 78 -184 188 -184z" />
    <glyph glyph-name="seven" unicode="7" horiz-adv-x="592" 
d="M558 714l-436 -714h-70l399 653h-395v61h502z" />
    <glyph glyph-name="eight" unicode="8" horiz-adv-x="592" 
d="M426 540c0 73 -55 127 -128 127c-74 0 -126 -54 -126 -127c0 -74 52 -128 126 -128c73 0 128 54 128 128zM150 185c0 -86 64 -145 150 -145s150 59 150 145c0 87 -64 146 -150 146s-150 -61 -150 -146zM483 540c0 -101 -66 -150 -113 -169c49 -16 137 -68 137 -186
c0 -119 -89 -203 -207 -203s-208 84 -208 203c0 118 86 170 132 186c-48 21 -110 72 -110 169c0 104 80 179 184 179s185 -75 185 -179z" />
    <glyph glyph-name="nine" unicode="9" horiz-adv-x="592" 
d="M260 -1l150 271c-9 -6 -48 -30 -115 -30c-147 0 -250 102 -250 239c0 132 98 244 249 244c155 0 249 -105 249 -244c0 -69 -19 -120 -44 -164l-178 -316h-61zM294 662c-111 0 -188 -75 -188 -183c0 -101 81 -178 189 -178c110 0 187 77 187 178c0 107 -78 183 -188 183z
" />
    <glyph glyph-name="colon" unicode=":" horiz-adv-x="204" 
d="M58 316c0 26 21 46 46 46c26 0 46 -20 46 -46c0 -25 -20 -46 -46 -46c-25 0 -46 21 -46 46zM58 39c0 25 21 46 46 46c26 0 46 -21 46 -46c0 -26 -20 -46 -46 -46c-25 0 -46 20 -46 46z" />
    <glyph glyph-name="semicolon" unicode=";" horiz-adv-x="204" 
d="M165 49l-111 -183l-23 15l89 188zM71 316c0 26 21 46 46 46c26 0 46 -20 46 -46c0 -25 -20 -46 -46 -46c-25 0 -46 21 -46 46z" />
    <glyph glyph-name="less" unicode="&#x3c;" horiz-adv-x="316" 
d="M262 408v-56l-136 -97l136 -97v-56l-216 153z" />
    <glyph glyph-name="equal" unicode="=" horiz-adv-x="318" 
d="M276 223v-51h-227v51h227zM276 356v-51h-227v51h227z" />
    <glyph glyph-name="greater" unicode="&#x3e;" horiz-adv-x="316" 
d="M66 158l137 97l-137 97v56l217 -153l-217 -153v56z" />
    <glyph glyph-name="question" unicode="?" horiz-adv-x="454" 
d="M263 31c0 -23 -19 -41 -42 -41c-22 0 -41 18 -41 41c0 22 19 41 41 41c23 0 42 -19 42 -41zM224 212c28 0 42 6 54 17l31 -45c-20 -16 -48 -32 -89 -32c-53 0 -101 35 -101 100c0 70 53 112 156 191c41 31 90 68 90 125c0 56 -45 95 -124 95s-124 -46 -151 -103l-49 31
c33 71 92 133 200 133c119 0 186 -63 186 -156c0 -77 -58 -121 -120 -168c-104 -78 -126 -97 -126 -148c0 -23 19 -40 43 -40z" />
    <glyph glyph-name="at" unicode="@" horiz-adv-x="596" 
d="M179 383c0 -55 27 -104 94 -104c78 0 113 62 113 119c0 51 -33 99 -93 99c-69 0 -114 -55 -114 -114zM57 399c0 -118 81 -236 243 -236c66 0 138 27 161 55l15 -15c-23 -29 -99 -60 -178 -60c-176 0 -261 127 -261 256c0 127 99 254 262 254s262 -123 262 -242
c0 -62 -24 -153 -109 -153c-44 0 -64 33 -64 66c-11 -24 -44 -66 -115 -66c-78 0 -115 57 -115 125c0 73 55 134 135 134c69 0 95 -39 105 -70l5 64h19l-13 -159c-1 -34 5 -73 47 -73c60 0 85 79 85 132c0 111 -93 222 -242 222s-242 -117 -242 -234z" />
    <glyph glyph-name="A" unicode="A" horiz-adv-x="633" 
d="M316 737l286 -737h-61l-76 194h-298l-75 -194h-61zM316 577l-124 -322h250z" />
    <glyph glyph-name="B" unicode="B" horiz-adv-x="565" 
d="M434 539c0 -61 -24 -108 -72 -134c87 -12 162 -88 162 -193c0 -116 -91 -212 -225 -212h-223v714h174c120 0 184 -77 184 -175zM137 424h122c68 0 113 47 113 115c0 67 -41 114 -113 114h-122v-229zM137 61h163c93 0 163 63 163 151s-70 151 -163 151h-163v-302z" />
    <glyph glyph-name="C" unicode="C" horiz-adv-x="703" 
d="M106 355c0 -194 141 -304 292 -304c135 0 199 41 257 84v-68c-51 -35 -108 -77 -257 -77c-197 0 -357 141 -357 365c0 222 160 366 357 366c146 0 193 -27 257 -65v-71c-77 44 -133 75 -257 75c-151 0 -292 -114 -292 -305z" />
    <glyph glyph-name="D" unicode="D" horiz-adv-x="686" 
d="M140 61h159c159 0 275 118 275 296c0 179 -116 296 -275 296h-159v-592zM636 357c0 -209 -140 -357 -319 -357h-238v714h238c179 0 319 -148 319 -357z" />
    <glyph glyph-name="E" unicode="E" horiz-adv-x="479" 
d="M419 653h-281v-226h281v-62h-281v-304h281v-61h-342v714h342v-61z" />
    <glyph glyph-name="F" unicode="F" horiz-adv-x="468" 
d="M389 653h-249v-230h249v-61h-249v-362h-61v714h310v-61z" />
    <glyph glyph-name="G" unicode="G" horiz-adv-x="813" 
d="M47 356c0 210 158 366 366 366c154 0 251 -81 296 -145l-49 -38c-45 63 -129 122 -247 122c-173 0 -305 -131 -305 -305c0 -173 132 -305 305 -305c171 0 285 122 299 243h-216v61h284c0 -197 -148 -365 -367 -365c-210 0 -366 156 -366 366z" />
    <glyph glyph-name="H" unicode="H" horiz-adv-x="617" 
d="M135 423h351v291h61v-714h-61v362h-351v-362h-62v714h62v-291z" />
    <glyph glyph-name="I" unicode="I" horiz-adv-x="228" 
d="M144 0h-61v714h61v-714z" />
    <glyph glyph-name="J" unicode="J" horiz-adv-x="354" 
d="M288 714v-546c0 -114 -41 -176 -136 -176c-63 0 -93 37 -110 65l46 40c15 -27 29 -44 63 -44c42 0 76 16 76 115v546h61z" />
    <glyph glyph-name="K" unicode="K" horiz-adv-x="543" 
d="M144 420l293 294h81l-312 -312l303 -402h-70l-274 362l-21 -22v-340h-61v714h61v-294z" />
    <glyph glyph-name="L" unicode="L" horiz-adv-x="371" 
d="M140 61h180v-61h-241v714h61v-653z" />
    <glyph glyph-name="M" unicode="M" horiz-adv-x="906" 
d="M218 731l240 -594l240 594l187 -731h-62l-138 545l-227 -559l-226 559l-139 -545h-61z" />
    <glyph glyph-name="N" unicode="N" horiz-adv-x="718" 
d="M592 713h61v-726l-513 574v-561h-61v719l513 -574v568z" />
    <glyph glyph-name="O" unicode="O" horiz-adv-x="827" 
d="M779 356c0 -207 -160 -366 -367 -366s-366 159 -366 366s159 366 366 366s367 -159 367 -366zM412 51c176 0 305 130 305 305c0 176 -129 305 -305 305c-175 0 -305 -129 -305 -305c0 -175 130 -305 305 -305z" />
    <glyph glyph-name="P" unicode="P" horiz-adv-x="481" 
d="M248 418c81 0 133 51 133 118c0 66 -52 117 -133 117h-113v-235h113zM248 714c118 0 194 -76 194 -178s-76 -179 -194 -179h-113v-357h-62v714h175z" />
    <glyph glyph-name="Q" unicode="Q" horiz-adv-x="816" 
d="M412 -10c-207 0 -366 159 -366 366s159 366 366 366s367 -159 367 -366c0 -112 -47 -210 -124 -277l79 -79h-72l-48 48c-57 -37 -126 -58 -202 -58zM390 272h73l150 -150c65 54 104 137 104 234c0 176 -129 305 -305 305c-175 0 -305 -129 -305 -305
c0 -175 130 -305 305 -305c58 0 112 15 158 41z" />
    <glyph glyph-name="R" unicode="R" horiz-adv-x="495" 
d="M442 536c0 -102 -78 -179 -194 -179h-19l229 -357h-72l-226 357h-25v-357h-62v714h175c118 0 194 -76 194 -178zM248 418c81 0 133 51 133 118c0 66 -52 117 -133 117h-113v-235h113z" />
    <glyph glyph-name="S" unicode="S" horiz-adv-x="492" 
d="M369 587c-26 45 -60 70 -117 70c-76 0 -117 -42 -117 -104c0 -57 60 -87 123 -124c92 -54 203 -116 203 -245c0 -107 -78 -190 -200 -190c-123 0 -187 63 -224 149l56 25c27 -67 77 -113 168 -113c83 0 139 55 139 129c0 90 -76 134 -148 177c-93 55 -179 86 -179 192
c0 96 72 165 179 165c92 0 142 -50 172 -104z" />
    <glyph glyph-name="T" unicode="T" horiz-adv-x="427" 
d="M398 714v-61h-147v-653h-61v653h-149v61h357z" />
    <glyph glyph-name="U" unicode="U" horiz-adv-x="560" 
d="M135 188c0 -96 67 -142 146 -142c78 0 146 46 146 142v526h61v-518c0 -135 -90 -210 -207 -210c-118 0 -208 77 -208 210v518h62v-526z" />
    <glyph glyph-name="V" unicode="V" horiz-adv-x="522" 
d="M99 714l166 -533l168 533h65l-233 -724l-231 724h65z" />
    <glyph glyph-name="W" unicode="W" horiz-adv-x="870" 
d="M92 714l166 -527l179 537l182 -536l163 526h63l-230 -724l-178 555l-179 -555l-229 724h63z" />
    <glyph glyph-name="X" unicode="X" horiz-adv-x="559" 
d="M99 714l181 -298l181 298h74l-219 -360l214 -354h-73l-179 300l-182 -300h-73l218 359l-212 355h70z" />
    <glyph glyph-name="Y" unicode="Y" horiz-adv-x="499" 
d="M89 714l162 -293l163 293h64l-197 -352v-362h-61v362l-194 352h63z" />
    <glyph glyph-name="Z" unicode="Z" horiz-adv-x="558" 
d="M514 714l-367 -653h367v-61h-475l375 653h-351v61h451z" />
    <glyph glyph-name="bracketleft" unicode="[" horiz-adv-x="233" 
d="M188 720h-68v-732h71v-34h-132v801h129v-35z" />
    <glyph glyph-name="backslash" unicode="\" horiz-adv-x="281" 
d="M267 -26h-39l-205 750h40z" />
    <glyph glyph-name="bracketright" unicode="]" horiz-adv-x="233" 
d="M186 -46h-132v34h70v732h-67v35h129v-801z" />
    <glyph glyph-name="asciicircum" unicode="^" horiz-adv-x="352" 
d="M163 663h31l112 -252h-25l-102 174l-103 -174h-25z" />
    <glyph glyph-name="underscore" unicode="_" horiz-adv-x="357" 
d="M367 -26v-35h-367v35h367z" />
    <glyph glyph-name="grave" unicode="`" horiz-adv-x="286" 
d="M202 472l-133 133l29 29l133 -133z" />
    <glyph glyph-name="a" unicode="a" horiz-adv-x="541" 
d="M260 -8c-118 0 -214 96 -214 214s96 214 214 214c62 0 119 -27 158 -70v63h56v-413h-56v62c-39 -43 -95 -70 -158 -70zM103 205c0 -87 71 -158 158 -158s158 71 158 158s-71 158 -158 158s-158 -71 -158 -158z" />
    <glyph glyph-name="b" unicode="b" horiz-adv-x="520" 
d="M273 420c118 0 214 -96 214 -214s-96 -214 -214 -214c-63 0 -120 27 -159 71v-63h-56v740h56v-391c39 44 96 71 159 71zM115 205c0 -87 71 -158 158 -158s158 71 158 158s-71 158 -158 158s-158 -71 -158 -158z" />
    <glyph glyph-name="c" unicode="c" horiz-adv-x="435" 
d="M46 206c0 125 90 214 214 214c60 0 94 -16 130 -38v-72c-31 27 -72 53 -130 53c-90 0 -157 -67 -157 -157s67 -157 157 -157c56 0 99 26 130 55v-73c-27 -20 -64 -39 -130 -39c-124 0 -214 90 -214 214z" />
    <glyph glyph-name="d" unicode="d" horiz-adv-x="520" 
d="M412 740h56v-740h-56v63c-39 -44 -96 -71 -159 -71c-118 0 -214 96 -214 214s96 214 214 214c63 0 120 -27 159 -71v391zM95 205c0 -87 71 -158 158 -158s158 71 158 158s-71 158 -158 158s-158 -71 -158 -158z" />
    <glyph glyph-name="e" unicode="e" horiz-adv-x="494" 
d="M251 49c67 0 110 35 136 75l50 -30c-30 -52 -93 -102 -186 -102c-124 0 -214 90 -214 214c0 125 90 214 214 214c140 0 214 -108 214 -211c0 -19 -2 -28 -10 -28h-359c10 -70 65 -132 155 -132zM404 235c-6 54 -57 128 -153 128c-101 0 -151 -78 -154 -128h307z" />
    <glyph glyph-name="f" unicode="f" horiz-adv-x="286" 
d="M87 357h-56v56h56v240c0 50 27 93 89 93c25 0 41 -2 62 -8v-54c-17 6 -35 10 -47 10c-29 0 -48 -8 -48 -51v-230h98v-56h-98v-357h-56v357z" />
    <glyph glyph-name="g" unicode="g" horiz-adv-x="531" 
d="M420 413h57v-403c0 -132 -86 -204 -209 -204c-113 0 -195 57 -202 133h56c8 -40 57 -77 146 -77c99 0 152 53 152 148v53c-39 -44 -96 -71 -159 -71c-118 0 -214 96 -214 214s96 214 214 214c63 0 120 -27 159 -71v64zM103 205c0 -87 71 -158 158 -158s158 71 158 158
s-71 158 -158 158s-158 -71 -158 -158z" />
    <glyph glyph-name="h" unicode="h" horiz-adv-x="456" 
d="M63 0v740h56v-387c21 37 60 65 119 65c113 0 166 -75 166 -167v-252h-56v249c0 55 -26 114 -109 114c-77 0 -120 -55 -120 -105v-257h-56z" />
    <glyph glyph-name="i" unicode="i" horiz-adv-x="197" 
d="M129 413v-413h-57v413h57zM135 520c0 -19 -16 -34 -35 -34s-35 15 -35 34c0 20 16 35 35 35s35 -15 35 -35z" />
    <glyph glyph-name="j" unicode="j" horiz-adv-x="197" 
d="M129 413v-602h-57v602h57zM135 520c0 -19 -16 -34 -35 -34s-35 15 -35 34c0 20 16 35 35 35s35 -15 35 -35z" />
    <glyph glyph-name="k" unicode="k" horiz-adv-x="431" 
d="M124 252l162 161h73l-181 -179l233 -234h-80l-192 192l-15 -13v-179h-56v740h56v-488z" />
    <glyph glyph-name="l" unicode="l" horiz-adv-x="197" 
d="M130 0h-57v740h57v-740z" />
    <glyph glyph-name="m" unicode="m" horiz-adv-x="671" 
d="M74 0v413h57v-49c10 27 39 57 98 57c71 0 101 -30 117 -70c18 38 51 71 121 71c94 0 147 -60 147 -135v-287h-56v272c0 51 -23 94 -91 94c-67 0 -95 -48 -95 -94v-272h-56v272c0 46 -20 94 -87 94c-68 0 -98 -48 -98 -94v-272h-57z" />
    <glyph glyph-name="n" unicode="n" horiz-adv-x="490" 
d="M77 0v413h56v-58c13 31 53 62 121 62c116 0 172 -72 172 -167v-251h-57v232c0 79 -35 130 -115 130c-88 0 -121 -64 -121 -126v-235h-56z" />
    <glyph glyph-name="o" unicode="o" horiz-adv-x="501" 
d="M465 206c0 -118 -96 -214 -214 -214s-214 96 -214 214s96 214 214 214s214 -96 214 -214zM93 205c0 -87 71 -158 158 -158s158 71 158 158s-71 158 -158 158s-158 -71 -158 -158z" />
    <glyph glyph-name="p" unicode="p" horiz-adv-x="537" 
d="M287 420c118 0 214 -96 214 -214s-96 -214 -214 -214c-64 0 -122 29 -161 74v-262h-56v609h56v-66c39 44 96 73 161 73zM129 205c0 -87 71 -158 158 -158s158 71 158 158s-71 158 -158 158s-158 -71 -158 -158z" />
    <glyph glyph-name="q" unicode="q" horiz-adv-x="536" 
d="M413 413h56v-609h-56v262c-39 -45 -97 -74 -161 -74c-118 0 -214 96 -214 214s96 214 214 214c65 0 122 -29 161 -73v66zM94 205c0 -87 71 -158 158 -158s158 71 158 158s-71 158 -158 158s-158 -71 -158 -158z" />
    <glyph glyph-name="r" unicode="r" horiz-adv-x="334" 
d="M63 0v413h56v-45c12 26 40 50 80 50c41 0 70 -10 95 -34l-27 -42c-14 11 -28 20 -66 20c-47 0 -82 -42 -82 -74v-288h-56z" />
    <glyph glyph-name="s" unicode="s" horiz-adv-x="343" 
d="M269 326c-16 19 -37 37 -83 37c-53 0 -78 -22 -78 -55c0 -30 29 -48 77 -61c79 -22 136 -59 136 -129c0 -78 -68 -124 -145 -124s-118 33 -145 75l47 29c20 -29 44 -48 98 -48c47 0 89 26 89 68c0 43 -44 60 -99 77c-60 18 -114 38 -114 113c0 65 56 111 134 111
c65 0 100 -26 128 -60z" />
    <glyph glyph-name="t" unicode="t" horiz-adv-x="276" 
d="M87 357h-56v56h56v181h56v-181h97v-56h-97v-357h-56v357z" />
    <glyph glyph-name="u" unicode="u" horiz-adv-x="429" 
d="M117 413v-249c0 -81 30 -118 97 -118c68 0 97 37 97 118v249h56v-258c0 -106 -59 -163 -153 -163s-153 57 -153 163v258h56z" />
    <glyph glyph-name="v" unicode="v" horiz-adv-x="434" 
d="M218 109l137 304h58l-195 -430l-195 430h59z" />
    <glyph glyph-name="w" unicode="w" horiz-adv-x="684" 
d="M209 110l138 316l138 -316l133 303h55l-188 -428l-138 313l-138 -313l-188 428h55z" />
    <glyph glyph-name="x" unicode="x" horiz-adv-x="383" 
d="M91 413l106 -163l106 163h58l-135 -208l133 -205h-58l-106 163l-106 -163h-58l135 207l-133 206h58z" />
    <glyph glyph-name="y" unicode="y" horiz-adv-x="438" 
d="M241 134l127 279h59l-272 -597h-59l116 255l-184 342h63z" />
    <glyph glyph-name="z" unicode="z" horiz-adv-x="442" 
d="M400 413l-251 -357h244v-56h-351l250 357h-242v56h350z" />
    <glyph glyph-name="braceleft" unicode="{" horiz-adv-x="224" 
d="M114 445c0 -43 -18 -67 -43 -90c21 -21 43 -53 43 -90v-211c0 -58 19 -85 87 -85v-51c-110 0 -138 47 -138 136v211c0 40 -25 69 -45 90c22 22 45 47 45 90v183c0 82 32 139 138 139v-51c-68 0 -87 -24 -87 -88v-183z" />
    <glyph glyph-name="bar" unicode="|" horiz-adv-x="153" 
d="M105 -46h-51v801h51v-801z" />
    <glyph glyph-name="braceright" unicode="}" horiz-adv-x="224" 
d="M35 716v51c106 0 138 -57 138 -139v-183c0 -43 23 -68 45 -90c-20 -21 -45 -50 -45 -90v-211c0 -89 -28 -136 -138 -136v51c68 0 87 27 87 85v211c0 37 22 69 43 90c-25 23 -43 47 -43 90v183c0 64 -19 88 -87 88z" />
    <glyph glyph-name="asciitilde" unicode="~" horiz-adv-x="443" 
d="M32 370c31 27 67 44 115 44c26 0 53 -8 72 -17c21 -9 46 -19 79 -19c44 0 62 12 93 34l26 -35c-31 -25 -65 -44 -117 -44c-37 0 -67 8 -88 17c-19 9 -40 20 -65 20c-34 0 -61 -13 -87 -33z" />
    <glyph glyph-name="Adieresis" unicode="&#xc4;" horiz-adv-x="633" 
d="M271 796c0 -19 -15 -34 -34 -34s-34 15 -34 34s15 34 34 34s34 -15 34 -34zM423 796c0 -19 -15 -34 -34 -34s-34 15 -34 34s15 34 34 34s34 -15 34 -34zM316 737l286 -737h-61l-76 194h-298l-75 -194h-61zM316 577l-124 -322h250z" />
    <glyph glyph-name="Aring" unicode="&#xc5;" horiz-adv-x="633" 
d="M382 815c0 -36 -30 -66 -66 -66s-66 30 -66 66s30 66 66 66s66 -30 66 -66zM271 815c0 -25 20 -45 45 -45s45 20 45 45s-20 45 -45 45s-45 -20 -45 -45zM316 737l286 -737h-61l-76 194h-298l-75 -194h-61zM316 577l-124 -322h250z" />
    <glyph glyph-name="Ccedilla" unicode="&#xc7;" horiz-adv-x="703" 
d="M408 -41c16 -8 37 -31 37 -58c0 -37 -30 -63 -69 -63c-22 0 -44 9 -58 23v45c13 -12 30 -23 47 -23c20 0 30 13 30 25c0 20 -16 34 -36 43l15 40c-186 11 -333 149 -333 364c0 222 160 366 357 366c146 0 193 -27 257 -65v-71c-77 44 -133 75 -257 75
c-151 0 -292 -114 -292 -305c0 -194 141 -304 292 -304c135 0 199 41 257 84v-68c-48 -33 -102 -73 -235 -77z" />
    <glyph glyph-name="Eacute" unicode="&#xc9;" horiz-adv-x="479" 
d="M349 860l-111 -111l-28 28l111 111zM419 653h-281v-226h281v-62h-281v-304h281v-61h-342v714h342v-61z" />
    <glyph glyph-name="Ntilde" unicode="&#xd1;" horiz-adv-x="718" 
d="M201 792c21 21 46 47 99 47c24 0 43 -7 60 -17c20 -11 36 -23 60 -23c42 0 55 11 73 29l28 -26c-21 -21 -43 -44 -99 -44c-31 0 -52 10 -68 21c-19 10 -34 20 -54 20c-41 0 -54 -17 -71 -35zM592 713h61v-726l-513 574v-561h-61v719l513 -574v568z" />
    <glyph glyph-name="Odieresis" unicode="&#xd6;" horiz-adv-x="827" 
d="M368 796c0 -19 -15 -34 -34 -34s-34 15 -34 34s15 34 34 34s34 -15 34 -34zM520 796c0 -19 -15 -34 -34 -34s-34 15 -34 34s15 34 34 34s34 -15 34 -34zM779 356c0 -207 -160 -366 -367 -366s-366 159 -366 366s159 366 366 366s367 -159 367 -366zM412 51
c176 0 305 130 305 305c0 176 -129 305 -305 305c-175 0 -305 -129 -305 -305c0 -175 130 -305 305 -305z" />
    <glyph glyph-name="Udieresis" unicode="&#xdc;" horiz-adv-x="560" 
d="M234 796c0 -19 -15 -34 -34 -34s-34 15 -34 34s15 34 34 34s34 -15 34 -34zM386 796c0 -19 -15 -34 -34 -34s-34 15 -34 34s15 34 34 34s34 -15 34 -34zM135 188c0 -96 67 -142 146 -142c78 0 146 46 146 142v526h61v-518c0 -135 -90 -210 -207 -210
c-118 0 -208 77 -208 210v518h62v-526z" />
    <glyph glyph-name="aacute" unicode="&#xe1;" horiz-adv-x="541" 
d="M391 605l-133 -133l-27 28l132 133zM260 -8c-118 0 -214 96 -214 214s96 214 214 214c62 0 119 -27 158 -70v63h56v-413h-56v62c-39 -43 -95 -70 -158 -70zM103 205c0 -87 71 -158 158 -158s158 71 158 158s-71 158 -158 158s-158 -71 -158 -158z" />
    <glyph glyph-name="agrave" unicode="&#xe0;" horiz-adv-x="541" 
d="M278 472l-133 133l27 28l133 -133zM260 -8c-118 0 -214 96 -214 214s96 214 214 214c62 0 119 -27 158 -70v63h56v-413h-56v62c-39 -43 -95 -70 -158 -70zM103 205c0 -87 71 -158 158 -158s158 71 158 158s-71 158 -158 158s-158 -71 -158 -158z" />
    <glyph glyph-name="acircumflex" unicode="&#xe2;" horiz-adv-x="541" 
d="M260 616l121 -120l-27 -27l-94 93l-94 -93l-27 27zM260 -8c-118 0 -214 96 -214 214s96 214 214 214c62 0 119 -27 158 -70v63h56v-413h-56v62c-39 -43 -95 -70 -158 -70zM103 205c0 -87 71 -158 158 -158s158 71 158 158s-71 158 -158 158s-158 -71 -158 -158z" />
    <glyph glyph-name="adieresis" unicode="&#xe4;" horiz-adv-x="541" 
d="M220 521c0 -19 -15 -34 -34 -34s-34 15 -34 34s15 34 34 34s34 -15 34 -34zM372 521c0 -19 -15 -34 -34 -34s-34 15 -34 34s15 34 34 34s34 -15 34 -34zM260 -8c-118 0 -214 96 -214 214s96 214 214 214c62 0 119 -27 158 -70v63h56v-413h-56v62
c-39 -43 -95 -70 -158 -70zM103 205c0 -87 71 -158 158 -158s158 71 158 158s-71 158 -158 158s-158 -71 -158 -158z" />
    <glyph glyph-name="atilde" unicode="&#xe3;" horiz-adv-x="541" 
d="M107 535c22 21 46 47 99 47c25 0 43 -8 60 -17c20 -11 36 -23 61 -23c41 0 55 11 72 28l29 -25c-22 -22 -44 -44 -99 -44c-32 0 -52 10 -69 20c-19 11 -33 21 -54 21c-41 0 -54 -18 -71 -35zM260 -8c-118 0 -214 96 -214 214s96 214 214 214c62 0 119 -27 158 -70v63h56
v-413h-56v62c-39 -43 -95 -70 -158 -70zM103 205c0 -87 71 -158 158 -158s158 71 158 158s-71 158 -158 158s-158 -71 -158 -158z" />
    <glyph glyph-name="aring" unicode="&#xe5;" horiz-adv-x="541" 
d="M347 534c0 -45 -37 -82 -82 -82s-82 37 -82 82s37 82 82 82s82 -37 82 -82zM209 534c0 -31 25 -56 56 -56s56 25 56 56s-25 56 -56 56s-56 -25 -56 -56zM260 -8c-118 0 -214 96 -214 214s96 214 214 214c62 0 119 -27 158 -70v63h56v-413h-56v62
c-39 -43 -95 -70 -158 -70zM103 205c0 -87 71 -158 158 -158s158 71 158 158s-71 158 -158 158s-158 -71 -158 -158z" />
    <glyph glyph-name="ccedilla" unicode="&#xe7;" horiz-adv-x="435" 
d="M282 -41c20 -7 39 -30 39 -55c0 -33 -29 -58 -64 -58c-24 0 -47 12 -61 25v43c13 -14 32 -23 47 -23c19 0 27 11 27 24c0 16 -17 33 -35 38l14 39c-118 5 -203 93 -203 214c0 125 90 214 214 214c60 0 94 -16 130 -38v-72c-31 27 -72 53 -130 53
c-90 0 -157 -67 -157 -157s67 -157 157 -157c56 0 99 26 130 55v-73c-22 -16 -51 -32 -97 -37z" />
    <glyph glyph-name="eacute" unicode="&#xe9;" horiz-adv-x="494" 
d="M371 605l-132 -133l-28 28l133 133zM251 49c67 0 110 35 136 75l50 -30c-30 -52 -93 -102 -186 -102c-124 0 -214 90 -214 214c0 125 90 214 214 214c140 0 214 -108 214 -211c0 -19 -2 -28 -10 -28h-359c10 -70 65 -132 155 -132zM404 235c-6 54 -57 128 -153 128
c-101 0 -151 -78 -154 -128h307z" />
    <glyph glyph-name="egrave" unicode="&#xe8;" horiz-adv-x="494" 
d="M286 472l-133 133l28 28l132 -133zM251 49c67 0 110 35 136 75l50 -30c-30 -52 -93 -102 -186 -102c-124 0 -214 90 -214 214c0 125 90 214 214 214c140 0 214 -108 214 -211c0 -19 -2 -28 -10 -28h-359c10 -70 65 -132 155 -132zM404 235c-6 54 -57 128 -153 128
c-101 0 -151 -78 -154 -128h307z" />
    <glyph glyph-name="ecircumflex" unicode="&#xea;" horiz-adv-x="494" 
d="M256 616l121 -120l-27 -27l-94 93l-94 -93l-27 27zM251 49c67 0 110 35 136 75l50 -30c-30 -52 -93 -102 -186 -102c-124 0 -214 90 -214 214c0 125 90 214 214 214c140 0 214 -108 214 -211c0 -19 -2 -28 -10 -28h-359c10 -70 65 -132 155 -132zM404 235
c-6 54 -57 128 -153 128c-101 0 -151 -78 -154 -128h307z" />
    <glyph glyph-name="edieresis" unicode="&#xeb;" horiz-adv-x="494" 
d="M211 521c0 -19 -15 -34 -34 -34s-34 15 -34 34s15 34 34 34s34 -15 34 -34zM363 521c0 -19 -15 -34 -34 -34s-34 15 -34 34s15 34 34 34s34 -15 34 -34zM251 49c67 0 110 35 136 75l50 -30c-30 -52 -93 -102 -186 -102c-124 0 -214 90 -214 214c0 125 90 214 214 214
c140 0 214 -108 214 -211c0 -19 -2 -28 -10 -28h-359c10 -70 65 -132 155 -132zM404 235c-6 54 -57 128 -153 128c-101 0 -151 -78 -154 -128h307z" />
    <glyph glyph-name="iacute" unicode="&#xed;" horiz-adv-x="197" 
d="M241 605l-133 -133l-27 28l132 133zM126 413v-413h-57v413h57z" />
    <glyph glyph-name="igrave" unicode="&#xec;" horiz-adv-x="197" 
d="M126 413v-413h-57v413h57zM93 472l-133 133l28 28l132 -133z" />
    <glyph glyph-name="icircumflex" unicode="&#xee;" horiz-adv-x="216" 
d="M109 616l121 -120l-27 -27l-94 93l-94 -93l-27 27zM138 413v-413h-56v413h56z" />
    <glyph glyph-name="idieresis" unicode="&#xef;" horiz-adv-x="197" 
d="M127 413v-413h-57v413h57zM191 521c0 -19 -15 -34 -34 -34s-34 15 -34 34s15 34 34 34s34 -15 34 -34zM70 521c0 -19 -15 -34 -34 -34s-34 15 -34 34s15 34 34 34s34 -15 34 -34z" />
    <glyph glyph-name="ntilde" unicode="&#xf1;" horiz-adv-x="490" 
d="M91 535c21 21 46 47 99 47c24 0 43 -8 60 -17c19 -11 36 -23 60 -23c42 0 55 11 73 28l28 -25c-21 -22 -44 -44 -99 -44c-31 0 -52 10 -68 20c-20 11 -34 21 -54 21c-41 0 -54 -18 -72 -35zM77 0v413h56v-58c13 31 53 62 121 62c116 0 172 -72 172 -167v-251h-57v232
c0 79 -35 130 -115 130c-88 0 -121 -64 -121 -126v-235h-56z" />
    <glyph glyph-name="oacute" unicode="&#xf3;" horiz-adv-x="501" 
d="M364 605l-132 -133l-28 28l133 133zM465 206c0 -118 -96 -214 -214 -214s-214 96 -214 214s96 214 214 214s214 -96 214 -214zM93 205c0 -87 71 -158 158 -158s158 71 158 158s-71 158 -158 158s-158 -71 -158 -158z" />
    <glyph glyph-name="ograve" unicode="&#xf2;" horiz-adv-x="501" 
d="M273 472l-132 133l27 28l133 -133zM465 206c0 -118 -96 -214 -214 -214s-214 96 -214 214s96 214 214 214s214 -96 214 -214zM93 205c0 -87 71 -158 158 -158s158 71 158 158s-71 158 -158 158s-158 -71 -158 -158z" />
    <glyph glyph-name="ocircumflex" unicode="&#xf4;" horiz-adv-x="501" 
d="M251 616l120 -120l-26 -27l-94 93l-94 -93l-27 27zM465 206c0 -118 -96 -214 -214 -214s-214 96 -214 214s96 214 214 214s214 -96 214 -214zM93 205c0 -87 71 -158 158 -158s158 71 158 158s-71 158 -158 158s-158 -71 -158 -158z" />
    <glyph glyph-name="odieresis" unicode="&#xf6;" horiz-adv-x="501" 
d="M211 521c0 -19 -15 -34 -34 -34s-34 15 -34 34s15 34 34 34s34 -15 34 -34zM363 521c0 -19 -15 -34 -34 -34s-34 15 -34 34s15 34 34 34s34 -15 34 -34zM465 206c0 -118 -96 -214 -214 -214s-214 96 -214 214s96 214 214 214s214 -96 214 -214zM93 205
c0 -87 71 -158 158 -158s158 71 158 158s-71 158 -158 158s-158 -71 -158 -158z" />
    <glyph glyph-name="otilde" unicode="&#xf5;" horiz-adv-x="501" 
d="M95 535c21 21 46 47 99 47c24 0 43 -8 60 -17c19 -11 36 -23 60 -23c42 0 55 11 73 28l28 -25c-21 -22 -44 -44 -99 -44c-31 0 -52 10 -68 20c-19 11 -34 21 -54 21c-41 0 -54 -18 -72 -35zM465 206c0 -118 -96 -214 -214 -214s-214 96 -214 214s96 214 214 214
s214 -96 214 -214zM93 205c0 -87 71 -158 158 -158s158 71 158 158s-71 158 -158 158s-158 -71 -158 -158z" />
    <glyph glyph-name="uacute" unicode="&#xfa;" horiz-adv-x="429" 
d="M345 605l-133 -133l-27 28l132 133zM117 413v-249c0 -81 30 -118 97 -118c68 0 97 37 97 118v249h56v-258c0 -106 -59 -163 -153 -163s-153 57 -153 163v258h56z" />
    <glyph glyph-name="ugrave" unicode="&#xf9;" horiz-adv-x="429" 
d="M224 472l-132 133l27 28l133 -133zM117 413v-249c0 -81 30 -118 97 -118c68 0 97 37 97 118v249h56v-258c0 -106 -59 -163 -153 -163s-153 57 -153 163v258h56z" />
    <glyph glyph-name="ucircumflex" unicode="&#xfb;" horiz-adv-x="429" 
d="M212 616l121 -120l-27 -27l-94 93l-94 -93l-27 27zM117 413v-249c0 -81 30 -118 97 -118c68 0 97 37 97 118v249h56v-258c0 -106 -59 -163 -153 -163s-153 57 -153 163v258h56z" />
    <glyph glyph-name="udieresis" unicode="&#xfc;" horiz-adv-x="429" 
d="M170 521c0 -19 -15 -34 -34 -34s-34 15 -34 34s15 34 34 34s34 -15 34 -34zM322 521c0 -19 -15 -34 -34 -34s-34 15 -34 34s15 34 34 34s34 -15 34 -34zM117 413v-249c0 -81 30 -118 97 -118c68 0 97 37 97 118v249h56v-258c0 -106 -59 -163 -153 -163s-153 57 -153 163
v258h56z" />
    <glyph glyph-name="dagger" unicode="&#x2020;" horiz-adv-x="245" 
d="M116 139v408h-67v27h67v162h28v-162h67v-27h-67v-408h-28z" />
    <glyph glyph-name="degree" unicode="&#xb0;" horiz-adv-x="224" 
d="M198 616c0 -45 -37 -82 -82 -82s-82 37 -82 82s37 82 82 82s82 -37 82 -82zM60 616c0 -31 25 -56 56 -56s56 25 56 56s-25 56 -56 56s-56 -25 -56 -56z" />
    <glyph glyph-name="cent" unicode="&#xa2;" horiz-adv-x="413" 
d="M99 337c0 -67 39 -131 112 -143v290c-76 -17 -112 -83 -112 -147zM33 337c0 95 61 187 178 203v57h56v-56c38 -4 72 -15 101 -36v-65c-22 20 -57 40 -101 44v-291c41 3 74 15 101 42v-65c-24 -16 -54 -31 -101 -34v-54h-56v55c-121 15 -178 108 -178 200z" />
    <glyph glyph-name="sterling" unicode="&#xa3;" horiz-adv-x="490" 
d="M143 562c0 -38 20 -71 54 -114c30 -38 72 -89 84 -143h114v-61h-112c0 -48 -33 -117 -73 -144c19 -4 34 -10 53 -22c18 -12 37 -23 75 -23c33 0 67 18 89 41l30 -47c-24 -27 -70 -55 -118 -55c-43 0 -71 11 -91 21c-20 12 -35 24 -79 24c-30 0 -66 -6 -99 -40l-30 54
c24 32 70 47 100 48c54 47 81 93 81 143h-106v61h104c-10 45 -51 86 -86 132c-28 37 -51 80 -51 124c0 91 71 158 168 158c98 0 179 -44 179 -144h-62c-4 58 -43 83 -115 83c-71 0 -109 -36 -109 -96z" />
    <glyph glyph-name="section" unicode="&#xa7;" horiz-adv-x="391" 
d="M338 53c0 -74 -58 -135 -149 -135c-83 0 -129 54 -146 104l39 19c12 -41 48 -81 107 -81c65 0 102 42 102 93c0 55 -35 114 -107 123c-77 10 -151 64 -151 156c0 97 66 136 96 150c-28 13 -74 43 -74 121c0 67 48 131 134 131c70 0 118 -42 139 -87l-34 -26
c-16 32 -50 71 -105 71c-60 0 -90 -46 -90 -87c0 -54 35 -92 97 -102c91 -14 161 -79 161 -167c0 -98 -62 -131 -90 -145c32 -23 71 -62 71 -138zM81 338c0 -74 59 -111 115 -111c72 0 114 41 114 105c0 65 -44 116 -123 116c-75 0 -106 -63 -106 -110z" />
    <glyph glyph-name="bullet" unicode="&#x2022;" horiz-adv-x="348" 
d="M303 230c0 -72 -59 -130 -131 -130c-71 0 -130 58 -130 130c0 71 59 130 130 130c72 0 131 -59 131 -130z" />
    <glyph glyph-name="paragraph" unicode="&#xb6;" horiz-adv-x="551" 
d="M371 -94h-61v451h-67c-103 0 -194 62 -194 180c0 114 96 177 194 177h128v-808zM494 -94h-61v808h61v-808z" />
    <glyph glyph-name="germandbls" unicode="&#xdf;" horiz-adv-x="553" 
d="M253 714c91 0 166 -71 166 -162c0 -78 -37 -123 -84 -149c88 -11 174 -71 174 -194c0 -121 -71 -209 -200 -209h-85v56h82c96 0 147 72 147 154c0 117 -85 152 -214 152v56c68 0 124 56 124 132c0 60 -45 108 -110 108c-75 0 -115 -38 -115 -116v-542h-56v357h-56v56h56
v126c0 121 69 175 171 175z" />
    <glyph glyph-name="registered" unicode="&#xae;" horiz-adv-x="398" 
d="M265 585c0 -33 -21 -49 -51 -49h-8l59 -84h-18l-58 84h-31v-84h-14v182h70c31 0 51 -21 51 -49zM251 585c0 19 -12 35 -36 35h-57v-70h57c24 0 36 13 36 35zM357 539c0 -87 -71 -158 -158 -158s-158 71 -158 158s71 158 158 158s158 -71 158 -158zM56 539
c0 -79 64 -143 143 -143s143 64 143 143s-64 143 -143 143s-143 -64 -143 -143z" />
    <glyph glyph-name="copyright" unicode="&#xa9;" horiz-adv-x="588" 
d="M187 394c0 -50 37 -101 110 -101c46 0 73 16 95 39v-24c-16 -15 -44 -35 -95 -35c-86 0 -130 61 -130 121s43 120 130 120c48 0 75 -17 95 -30v-24c-21 16 -53 34 -95 34c-73 0 -110 -50 -110 -100zM560 389c0 -145 -118 -263 -263 -263s-263 118 -263 263
s118 263 263 263s263 -118 263 -263zM55 390c0 -134 109 -243 243 -243s243 109 243 243s-109 243 -243 243s-243 -109 -243 -243z" />
    <glyph glyph-name="trademark" unicode="&#x2122;" horiz-adv-x="367" 
d="M151 706v-12h-51v-148h-12v148h-51v12h114zM191 708l51 -136l52 136l34 -161h-13l-24 120l-49 -128l-49 128l-26 -120h-12z" />
    <glyph glyph-name="acute" unicode="&#xb4;" horiz-adv-x="311" 
d="M231 605l-133 -133l-28 28l133 133z" />
    <glyph glyph-name="dieresis" unicode="&#xa8;" horiz-adv-x="296" 
d="M111 521c0 -19 -15 -34 -34 -34s-34 15 -34 34s15 34 34 34s34 -15 34 -34zM263 521c0 -19 -15 -34 -34 -34s-34 15 -34 34s15 34 34 34s34 -15 34 -34z" />
    <glyph glyph-name="notequal" unicode="&#x2260;" horiz-adv-x="347" 
d="M62 305v51h126l20 73h39l-18 -73h60v-51h-78l-23 -82h101v-51h-115l-24 -80h-41l26 80h-73v51h85l23 82h-108z" />
    <glyph glyph-name="AE" unicode="&#xc6;" horiz-adv-x="722" 
d="M339 590l-97 -223h97v223zM82 0h-59l310 714h350v-61h-282v-226h282v-62h-283v-304h283v-61h-344v306h-124z" />
    <glyph glyph-name="Oslash" unicode="&#xd8;" horiz-adv-x="827" 
d="M46 356c0 207 159 366 366 366c66 0 129 -17 183 -47l55 81l49 -33l-55 -81c83 -64 135 -166 135 -286c0 -207 -160 -366 -367 -366c-66 0 -128 17 -182 46l-57 -83l-49 32l57 84c-83 66 -135 168 -135 287zM561 625c-43 23 -93 36 -149 36c-175 0 -305 -129 -305 -305
c0 -98 41 -182 108 -237zM412 51c176 0 305 130 305 305c0 98 -40 182 -107 237l-346 -507c43 -22 93 -35 148 -35z" />
    <glyph glyph-name="plusminus" unicode="&#xb1;" horiz-adv-x="383" 
d="M324 198v-51h-257v51h257zM170 384v97h51v-97h102v-51h-102v-102h-51v102h-102v51h102z" />
    <glyph glyph-name="lessequal" unicode="&#x2264;" horiz-adv-x="281" 
d="M248 198v-51h-211v51h211zM244 531v-57l-137 -96l137 -97v-57l-216 154z" />
    <glyph glyph-name="greaterequal" unicode="&#x2265;" horiz-adv-x="281" 
d="M248 198v-51h-211v51h211zM46 281l137 97l-137 96v57l216 -153l-216 -154v57z" />
    <glyph glyph-name="yen" unicode="&#xa5;" horiz-adv-x="482" 
d="M81 714l163 -291l163 291h63l-199 -352h102v-51h-102v-51h102v-51h-102v-209h-60v209h-102v51h102v51h-102v51h102l-194 352h64z" />
    <glyph glyph-name="mu" unicode="&#xb5;" horiz-adv-x="499" 
d="M347 0h-56v357h-148v-357h-56v357h-56v56h56v220c0 82 66 113 128 113c63 0 132 -31 132 -113v-220h125v-56h-125v-357zM216 690c-52 0 -73 -28 -73 -69v-208h148v211c0 41 -24 66 -75 66z" />
    <glyph glyph-name="partialdiff" unicode="&#x2202;" 
d="M280 380v-31h-235v31h235zM173 732v-322h-28v294h-48l12 28h64zM71 250c3 39 34 73 87 73c51 0 87 -35 87 -81c0 -39 -21 -63 -47 -72c27 -9 49 -37 49 -81c0 -53 -39 -95 -89 -95c-52 0 -85 27 -91 71h28c5 -27 27 -44 63 -44c33 0 61 29 61 68c0 47 -34 67 -61 67h-16
v28h16c25 0 59 17 59 58c0 33 -28 53 -59 53c-34 0 -55 -20 -59 -45h-28z" />
    <glyph glyph-name="summation" unicode="&#x2211;" 
d="M280 380v-31h-235v31h235zM176 732v-322h-28v294h-48l12 28h64zM224 84h29v-28h-29v-61h-28v61h-156l184 265v-237zM196 84v153l-105 -153h105z" />
    <glyph glyph-name="product" unicode="&#x220f;" 
d="M276 380v-31h-235v31h235zM67 653c7 40 35 77 94 77c53 0 91 -34 91 -86c0 -49 -24 -83 -52 -116l-79 -95h133v-27h-194l118 139c22 26 46 59 46 99c0 35 -26 59 -63 59c-41 0 -62 -26 -67 -50h-27zM71 251c3 39 34 73 87 73c51 0 87 -35 87 -81c0 -39 -21 -63 -47 -72
c27 -9 49 -37 49 -81c0 -53 -39 -95 -89 -95c-52 0 -85 27 -91 71h28c5 -27 27 -44 63 -44c33 0 61 29 61 68c0 47 -34 67 -61 67h-16v28h16c25 0 59 17 59 58c0 33 -28 53 -59 53c-34 0 -55 -20 -59 -45h-28z" />
    <glyph glyph-name="pi" unicode="&#x3c0;" 
d="M278 380v-31h-235v31h235zM83 664c3 39 34 73 87 73c51 0 87 -35 87 -81c0 -39 -21 -63 -47 -72c27 -9 49 -37 49 -81c0 -53 -39 -95 -89 -95c-52 0 -85 27 -91 71h28c5 -27 27 -44 63 -44c33 0 61 29 61 68c0 47 -34 67 -61 67h-16v28h16c25 0 59 17 59 58
c0 33 -28 53 -59 53c-34 0 -55 -20 -59 -45h-28zM234 84h29v-28h-29v-61h-28v61h-156l184 265v-237zM206 84v153l-105 -153h105z" />
    <glyph glyph-name="integral" unicode="&#x222b;" horiz-adv-x="791" 
d="M742 689v-688h-688v688h688zM706 653h-616v-616h616v616z" />
    <glyph glyph-name="ordfeminine" unicode="&#xaa;" horiz-adv-x="383" 
d="M356 341v-35h-303v35h303zM194 402c-71 0 -128 58 -128 128c0 71 57 128 128 128c37 0 71 -16 94 -42v38h34v-247h-34v37c-23 -26 -57 -42 -94 -42zM100 530c0 -52 42 -95 94 -95s95 43 95 95s-43 94 -95 94s-94 -42 -94 -94z" />
    <glyph glyph-name="ordmasculine" unicode="&#xba;" horiz-adv-x="383" 
d="M342 342v-35h-299v35h299zM321 526c0 -72 -59 -131 -131 -131c-73 0 -131 59 -131 131s58 131 131 131c72 0 131 -59 131 -131zM93 525c0 -53 43 -96 97 -96c53 0 96 43 96 96c0 54 -43 97 -96 97c-54 0 -97 -43 -97 -97z" />
    <glyph glyph-name="Omega" unicode="&#x2126;" 
d="M279 380v-31h-235v31h235zM176 732v-322h-28v294h-48l12 28h64zM68 248c7 40 35 77 94 77c53 0 91 -34 91 -86c0 -49 -24 -83 -52 -116l-79 -95h133v-27h-194l118 139c22 26 46 59 46 99c0 35 -26 59 -63 59c-41 0 -62 -26 -67 -50h-27z" />
    <glyph glyph-name="ae" unicode="&#xe6;" horiz-adv-x="891" 
d="M635 420c140 0 214 -108 214 -211c0 -19 -2 -28 -10 -28h-359c10 -70 65 -132 155 -132c67 0 110 35 136 75l50 -30c-30 -52 -93 -102 -186 -102c-66 0 -123 26 -161 68v-60h-56v62c-39 -43 -95 -70 -158 -70c-118 0 -214 96 -214 214s96 214 214 214
c62 0 119 -27 158 -70v63h56v-61c38 43 95 68 161 68zM103 205c0 -87 71 -158 158 -158s158 71 158 158s-71 158 -158 158s-158 -71 -158 -158zM788 235c-6 54 -57 128 -153 128c-101 0 -151 -78 -154 -128h307z" />
    <glyph glyph-name="oslash" unicode="&#xf8;" horiz-adv-x="501" 
d="M178 65c22 -11 46 -18 73 -18c87 0 158 71 158 158c0 45 -19 85 -49 114zM465 206c0 -118 -96 -214 -214 -214c-38 0 -74 10 -105 28l-38 -54l-40 27l39 55c-43 39 -70 95 -70 158c0 118 96 214 214 214c37 0 72 -9 103 -26l40 56l40 -27l-41 -57c44 -39 72 -96 72 -160z
M251 363c-87 0 -158 -71 -158 -158c0 -43 18 -83 47 -112l180 254c-21 10 -44 16 -69 16z" />
    <glyph glyph-name="questiondown" unicode="&#xbf;" horiz-adv-x="454" 
d="M205 590c0 23 19 41 42 41c22 0 41 -18 41 -41c0 -22 -19 -41 -41 -41c-23 0 -42 19 -42 41zM244 409c-28 0 -42 -6 -54 -17l-31 45c20 16 48 32 89 32c53 0 101 -35 101 -100c0 -70 -53 -112 -156 -191c-41 -31 -90 -68 -90 -125c0 -56 45 -95 124 -95s124 46 151 103
l49 -31c-33 -71 -92 -133 -200 -133c-119 0 -186 63 -186 156c0 77 58 121 120 168c104 78 126 97 126 148c0 23 -19 40 -43 40z" />
    <glyph glyph-name="exclamdown" unicode="&#xa1;" horiz-adv-x="199" 
d="M68 470h62v-566h-62v566zM57 585c0 23 19 42 42 42s42 -19 42 -42s-19 -42 -42 -42s-42 19 -42 42z" />
    <glyph glyph-name="logicalnot" unicode="&#xac;" 
d="M272 380v-31h-234v31h234zM167 731v-322h-28v294h-48l12 28h64zM239 245c0 -45 -30 -67 -51 -76c22 -7 62 -30 62 -83c0 -54 -40 -92 -94 -92c-53 0 -93 38 -93 92c0 53 39 76 59 83c-21 10 -49 33 -49 76c0 47 36 81 83 81c46 0 83 -34 83 -81zM89 86
c0 -39 29 -65 67 -65c39 0 68 26 68 65s-29 65 -68 65c-38 0 -67 -27 -67 -65zM213 245c0 33 -25 58 -57 58c-34 0 -57 -25 -57 -58s23 -57 57 -57c32 0 57 24 57 57z" />
    <glyph glyph-name="radical" unicode="&#x221a;" horiz-adv-x="646" 
d="M79 229c44 -45 69 -100 80 -171c58 157 275 415 435 508v-102c-171 -103 -331 -271 -436 -469c-29 77 -63 133 -115 161z" />
    <glyph glyph-name="florin" unicode="&#x192;" horiz-adv-x="588" 
d="M537 481v-481h-482v481h482z" />
    <glyph glyph-name="approxequal" unicode="&#x2248;" horiz-adv-x="775" 
d="M326 273h124v126h-124v-126zM277 540c0 54 -31 98 -93 98c-57 0 -98 -38 -98 -97c0 -55 38 -93 99 -93h92v92zM183 399c-85 0 -146 61 -146 145c0 77 62 143 143 143c97 0 146 -65 146 -145v-94h124v94c0 80 51 145 146 145c81 0 143 -60 143 -143s-66 -145 -146 -145
h-94v-126h94c80 0 146 -60 146 -144c0 -81 -61 -142 -143 -142c-95 0 -146 63 -146 144v93h-124v-93c0 -81 -49 -144 -146 -144c-82 0 -143 59 -143 142c0 84 66 144 146 144h94v126h-94zM690 541c0 59 -41 97 -98 97c-62 0 -93 -44 -93 -98v-92h92c54 0 99 38 99 93z
M499 133c0 -54 31 -97 93 -97c57 0 98 36 98 96c0 56 -45 92 -99 92h-92v-91zM86 132c0 -60 41 -96 98 -96c62 0 93 43 93 97v91h-92c-54 0 -99 -36 -99 -92z" />
    <glyph glyph-name="Delta" unicode="&#x2206;" horiz-adv-x="791" 
d="M745 0h-694l347 694zM398 619l-294 -586h587z" />
    <glyph glyph-name="guillemotleft" unicode="&#xab;" horiz-adv-x="469" 
d="M243 48l-207 207l211 211l22 -22l-188 -189l184 -185zM410 48l-207 207l211 211l23 -22l-189 -189l185 -185z" />
    <glyph glyph-name="guillemotright" unicode="&#xbb;" horiz-adv-x="469" 
d="M51 444l22 22l212 -211l-207 -207l-23 22l185 185zM219 444l23 22l211 -211l-207 -207l-23 22l185 185z" />
    <glyph glyph-name="ellipsis" unicode="&#x2026;" horiz-adv-x="517" 
d="M138 39c0 -25 -21 -46 -46 -46s-46 21 -46 46s21 46 46 46s46 -21 46 -46zM310 39c0 -25 -21 -46 -46 -46s-46 21 -46 46s21 46 46 46s46 -21 46 -46zM483 39c0 -25 -21 -46 -46 -46s-46 21 -46 46s21 46 46 46s46 -21 46 -46z" />
    <glyph glyph-name="nbspace" unicode="&#xe004;" horiz-adv-x="276" 
 />
    <glyph glyph-name="Agrave" unicode="&#xc0;" horiz-adv-x="633" 
d="M329 749l-112 111l28 28l111 -111zM316 737l286 -737h-61l-76 194h-298l-75 -194h-61zM316 577l-124 -322h250z" />
    <glyph glyph-name="Atilde" unicode="&#xc3;" horiz-adv-x="628" 
d="M154 792c22 21 46 47 99 47c25 0 43 -7 60 -17c20 -11 36 -23 60 -23c42 0 56 11 73 29l28 -26c-21 -21 -43 -44 -98 -44c-32 0 -53 10 -69 21c-19 10 -34 20 -54 20c-41 0 -54 -17 -71 -35zM316 737l286 -737h-61l-76 194h-298l-75 -194h-61zM316 577l-124 -322h250z
" />
    <glyph glyph-name="Otilde" unicode="&#xd5;" horiz-adv-x="827" 
d="M245 797c21 21 46 47 99 47c24 0 43 -7 60 -16c19 -12 36 -24 60 -24c42 0 55 11 73 29l28 -26c-21 -21 -44 -44 -99 -44c-31 0 -52 10 -68 21c-19 10 -34 20 -54 20c-41 0 -54 -17 -72 -35zM779 356c0 -207 -160 -366 -367 -366s-366 159 -366 366s159 366 366 366
s367 -159 367 -366zM412 51c176 0 305 130 305 305c0 176 -129 305 -305 305c-175 0 -305 -129 -305 -305c0 -175 130 -305 305 -305z" />
    <glyph glyph-name="OE" unicode="&#x152;" horiz-adv-x="1117" 
d="M720 714h343v-61h-282v-213h282v-61h-282v-318h282v-61h-343c0 1 0 160 0 159c-55 -101 -176 -169 -308 -169c-207 0 -366 159 -366 366s159 366 366 366c137 0 252 -71 308 -165v157zM412 51c176 0 305 130 305 305c0 176 -129 305 -305 305c-175 0 -305 -129 -305 -305
c0 -175 130 -305 305 -305z" />
    <glyph glyph-name="oe" unicode="&#x153;" horiz-adv-x="875" 
d="M621 420c140 0 214 -108 214 -211c0 -19 -2 -28 -10 -28h-359c10 -70 65 -132 155 -132c67 0 110 35 136 75l50 -30c-30 -52 -93 -102 -186 -102c-83 0 -151 40 -187 105c-36 -63 -105 -105 -183 -105c-118 0 -214 96 -214 214s96 214 214 214c77 0 146 -42 183 -104
c35 64 103 104 187 104zM93 205c0 -87 71 -158 158 -158s158 71 158 158s-71 158 -158 158s-158 -71 -158 -158zM774 235c-6 54 -57 128 -153 128c-101 0 -151 -78 -154 -128h307z" />
    <glyph glyph-name="endash" unicode="&#x2013;" horiz-adv-x="372" 
d="M333 295v-51h-291v51h291z" />
    <glyph glyph-name="emdash" unicode="&#x2014;" horiz-adv-x="617" 
d="M572 295v-51h-520v51h520z" />
    <glyph glyph-name="quotedblleft" unicode="&#x201c;" horiz-adv-x="286" 
d="M114 564h-53v117c0 21 8 35 18 47h20c-10 -12 -18 -26 -18 -47v-45h33v-72zM229 564h-53v117c0 21 8 35 18 47h20c-10 -12 -18 -26 -18 -47v-45h33v-72z" />
    <glyph glyph-name="quotedblright" unicode="&#x201d;" horiz-adv-x="301" 
d="M184 736h53v-117c0 -21 -8 -35 -18 -47h-20c10 12 18 26 18 47v45h-33v72zM69 736h53v-117c0 -21 -8 -35 -18 -47h-20c10 12 18 26 18 47v45h-33v72z" />
    <glyph glyph-name="quoteleft" unicode="&#x2018;" horiz-adv-x="163" 
d="M114 564h-53v117c0 21 8 35 18 47h20c-10 -12 -18 -26 -18 -47v-45h33v-72z" />
    <glyph glyph-name="quoteright" unicode="&#x2019;" horiz-adv-x="158" 
d="M64 736h53v-117c0 -21 -8 -35 -18 -47h-20c10 12 18 26 18 47v45h-33v72z" />
    <glyph glyph-name="divide" unicode="&#xf7;" horiz-adv-x="362" 
d="M57 290h257v-51h-257v51zM232 145c0 -25 -21 -46 -46 -46s-46 21 -46 46s21 46 46 46s46 -21 46 -46zM232 381c0 -25 -21 -46 -46 -46s-46 21 -46 46s21 46 46 46s46 -21 46 -46z" />
    <glyph glyph-name="lozenge" unicode="&#x25ca;" horiz-adv-x="408" 
d="M203 410l-157 -157l157 -157l157 157zM18 253l185 185l185 -185l-185 -185z" />
    <glyph glyph-name="ydieresis" unicode="&#xff;" horiz-adv-x="438" 
d="M190 521c0 -19 -15 -34 -34 -34s-34 15 -34 34s15 34 34 34s34 -15 34 -34zM342 521c0 -19 -15 -34 -34 -34s-34 15 -34 34s15 34 34 34s34 -15 34 -34zM241 134l127 279h59l-272 -597h-59l116 255l-184 342h63z" />
    <glyph glyph-name="Ydieresis" unicode="&#x178;" horiz-adv-x="499" 
d="M219 796c0 -19 -15 -34 -34 -34s-34 15 -34 34s15 34 34 34s34 -15 34 -34zM371 796c0 -19 -15 -34 -34 -34s-34 15 -34 34s15 34 34 34s34 -15 34 -34zM89 714l162 -293l163 293h64l-197 -352v-362h-61v362l-194 352h63z" />
    <glyph glyph-name="fraction" unicode="&#x2044;" horiz-adv-x="628" 
d="M71 0h-50l546 714h50z" />
    <glyph glyph-name="currency" unicode="&#xa4;" horiz-adv-x="467" 
d="M143 0h-56v357h-56v56h56v205c0 62 47 105 119 105c48 0 77 -13 91 -35c14 26 45 53 94 53c19 0 47 -3 56 -6v-56c-7 3 -25 6 -44 6c-41 0 -66 -19 -66 -67v-205h98v-56h-98v-357h-56v357h-138v-357zM281 605c0 26 -25 67 -75 67c-39 0 -63 -27 -63 -62v-197h138v192z
" />
    <glyph glyph-name="guilsinglleft" unicode="&#x2039;" horiz-adv-x="311" 
d="M243 48l-207 207l211 211l22 -22l-188 -189l184 -185z" />
    <glyph glyph-name="guilsinglright" unicode="&#x203a;" horiz-adv-x="306" 
d="M51 444l22 22l212 -211l-207 -207l-23 22l185 185z" />
    <glyph glyph-name="daggerdbl" unicode="&#x2021;" horiz-adv-x="245" 
d="M116 72v298h-67v28h67v164h-67v28h67v146h28v-146h67v-28h-67v-164h67v-28h-67v-298h-28z" />
    <glyph glyph-name="periodcentered" unicode="&#xb7;" horiz-adv-x="270" 
d="M179 319c0 -25 -21 -46 -46 -46s-46 21 -46 46s21 46 46 46s46 -21 46 -46z" />
    <glyph glyph-name="quotesinglbase" unicode="&#x201a;" horiz-adv-x="158" 
d="M63 122h53v-117c0 -21 -8 -35 -18 -47h-20c10 12 18 26 18 47v45h-33v72z" />
    <glyph glyph-name="quotedblbase" unicode="&#x201e;" horiz-adv-x="301" 
d="M184 122h53v-117c0 -21 -8 -35 -18 -47h-20c10 12 18 26 18 47v45h-33v72zM69 122h53v-117c0 -21 -8 -35 -18 -47h-20c10 12 18 26 18 47v45h-33v72z" />
    <glyph glyph-name="perthousand" unicode="&#x2030;" horiz-adv-x="903" 
d="M74 0h-56l546 714h56zM341 571c0 -73 -61 -133 -135 -133c-73 0 -135 60 -135 133c0 75 61 135 135 135c75 0 135 -60 135 -135zM206 489c46 0 84 36 84 82s-38 84 -84 84s-84 -38 -84 -84s38 -82 84 -82zM554 140c0 -74 -61 -134 -135 -134c-73 0 -134 60 -134 134
s60 134 134 134c75 0 135 -60 135 -134zM419 57c46 0 84 37 84 83s-38 83 -84 83s-83 -37 -83 -83s37 -83 83 -83zM872 140c0 -74 -61 -134 -134 -134c-74 0 -135 60 -135 134s60 134 135 134c74 0 134 -60 134 -134zM738 57c46 0 83 37 83 83s-37 83 -83 83
s-84 -37 -84 -83s38 -83 84 -83z" />
    <glyph glyph-name="Acircumflex" unicode="&#xc2;" horiz-adv-x="633" 
d="M314 901l121 -120l-27 -27l-94 93l-94 -93l-27 27zM316 737l286 -737h-61l-76 194h-298l-75 -194h-61zM316 577l-124 -322h250z" />
    <glyph glyph-name="Ecircumflex" unicode="&#xca;" horiz-adv-x="479" 
d="M252 901l120 -120l-26 -27l-94 93l-94 -93l-27 27zM419 653h-281v-226h281v-62h-281v-304h281v-61h-342v714h342v-61z" />
    <glyph glyph-name="Aacute" unicode="&#xc1;" horiz-adv-x="633" 
d="M401 860l-110 -111l-24 24l111 111zM316 737l286 -737h-61l-76 194h-298l-75 -194h-61zM316 577l-124 -322h250z" />
    <glyph glyph-name="Edieresis" unicode="&#xcb;" horiz-adv-x="479" 
d="M207 796c0 -19 -15 -34 -34 -34s-34 15 -34 34s15 34 34 34s34 -15 34 -34zM359 796c0 -19 -15 -34 -34 -34s-34 15 -34 34s15 34 34 34s34 -15 34 -34zM419 653h-281v-226h281v-62h-281v-304h281v-61h-342v714h342v-61z" />
    <glyph glyph-name="Egrave" unicode="&#xc8;" horiz-adv-x="479" 
d="M272 749l-111 111l28 28l111 -111zM419 653h-281v-226h281v-62h-281v-304h281v-61h-342v714h342v-61z" />
    <glyph glyph-name="Iacute" unicode="&#xcd;" horiz-adv-x="228" 
d="M221 860l-111 -111l-27 28l111 111zM144 0h-61v714h61v-714z" />
    <glyph glyph-name="Icircumflex" unicode="&#xce;" horiz-adv-x="228" 
d="M116 901l121 -120l-27 -27l-94 93l-94 -93l-27 27zM144 0h-61v714h61v-714z" />
    <glyph glyph-name="Idieresis" unicode="&#xcf;" horiz-adv-x="228" 
d="M72 796c0 -19 -15 -34 -34 -34s-34 15 -34 34s15 34 34 34s34 -15 34 -34zM224 796c0 -19 -15 -34 -34 -34s-34 15 -34 34s15 34 34 34s34 -15 34 -34zM144 0h-61v714h61v-714z" />
    <glyph glyph-name="Igrave" unicode="&#xcc;" horiz-adv-x="228" 
d="M110 749l-111 111l28 28l111 -111zM144 0h-61v714h61v-714z" />
    <glyph glyph-name="Oacute" unicode="&#xd3;" horiz-adv-x="827" 
d="M484 860l-112 -111l-27 28l111 111zM779 356c0 -207 -160 -366 -367 -366s-366 159 -366 366s159 366 366 366s367 -159 367 -366zM412 51c176 0 305 130 305 305c0 176 -129 305 -305 305c-175 0 -305 -129 -305 -305c0 -175 130 -305 305 -305z" />
    <glyph glyph-name="Ocircumflex" unicode="&#xd4;" horiz-adv-x="827" 
d="M412 901l121 -120l-27 -27l-94 93l-94 -93l-27 27zM779 356c0 -207 -160 -366 -367 -366s-366 159 -366 366s159 366 366 366s367 -159 367 -366zM412 51c176 0 305 130 305 305c0 176 -129 305 -305 305c-175 0 -305 -129 -305 -305c0 -175 130 -305 305 -305z" />
    <glyph glyph-name="apple" unicode="&#xe003;" horiz-adv-x="790" 
d="M275 530c34 0 68 -8 91 -24c28 -19 40 -27 60 -27s40 6 66 27c20 16 51 25 84 25c57 0 127 -29 136 -68c-44 -33 -80 -67 -80 -136c0 -77 50 -127 102 -142c-28 -67 -95 -198 -198 -198c-29 0 -55 11 -73 33c-9 11 -24 16 -39 16s-31 -5 -40 -16c-17 -21 -41 -31 -66 -31
c-68 0 -234 157 -234 346c0 113 74 195 191 195zM534 669c8 0 10 -3 10 -9c0 -51 -56 -142 -121 -142c-10 0 -12 9 -12 17c0 61 68 134 123 134z" />
    <glyph glyph-name="Ograve" unicode="&#xd2;" horiz-adv-x="827" 
d="M435 749l-112 111l28 28l111 -111zM779 356c0 -207 -160 -366 -367 -366s-366 159 -366 366s159 366 366 366s367 -159 367 -366zM412 51c176 0 305 130 305 305c0 176 -129 305 -305 305c-175 0 -305 -129 -305 -305c0 -175 130 -305 305 -305z" />
    <glyph glyph-name="Uacute" unicode="&#xda;" horiz-adv-x="560" 
d="M379 860l-112 -111l-27 28l111 111zM135 188c0 -96 67 -142 146 -142c78 0 146 46 146 142v526h61v-518c0 -135 -90 -210 -207 -210c-118 0 -208 77 -208 210v518h62v-526z" />
    <glyph glyph-name="Ucircumflex" unicode="&#xdb;" horiz-adv-x="560" 
d="M279 916l120 -120l-27 -27l-93 93l-94 -93l-28 27zM135 188c0 -96 67 -142 146 -142c78 0 146 46 146 142v526h61v-518c0 -135 -90 -210 -207 -210c-118 0 -208 77 -208 210v518h62v-526z" />
    <glyph glyph-name="Ugrave" unicode="&#xd9;" horiz-adv-x="560" 
d="M294 749l-111 111l27 28l111 -111zM135 188c0 -96 67 -142 146 -142c78 0 146 46 146 142v526h61v-518c0 -135 -90 -210 -207 -210c-118 0 -208 77 -208 210v518h62v-526z" />
    <glyph glyph-name="dotlessi" unicode="&#x131;" horiz-adv-x="189" 
d="M122 413v-413h-56v413h56z" />
    <glyph glyph-name="circumflex" unicode="&#x2c6;" horiz-adv-x="367" 
d="M185 616l120 -120l-26 -26l-94 94l-95 -95l-26 26z" />
    <glyph glyph-name="tilde" unicode="&#x2dc;" horiz-adv-x="408" 
d="M48 535c21 21 46 47 99 47c24 0 43 -8 60 -17c20 -11 36 -23 60 -23c42 0 55 11 73 28l28 -25c-21 -22 -44 -44 -99 -44c-31 0 -52 10 -68 20c-19 11 -34 21 -54 21c-41 0 -54 -18 -71 -35z" />
    <glyph glyph-name="macron" unicode="&#xaf;" horiz-adv-x="367" 
d="M335 525v-35h-283v35h283z" />
    <glyph glyph-name="breve" unicode="&#x2d8;" horiz-adv-x="311" 
d="M160 479c-38 0 -75 15 -107 46l23 23c26 -27 56 -39 84 -39c30 0 59 12 86 39l22 -23c-31 -31 -70 -46 -108 -46z" />
    <glyph glyph-name="dotaccent" unicode="&#x2d9;" horiz-adv-x="245" 
d="M164 539c0 -25 -21 -46 -46 -46s-46 21 -46 46s21 46 46 46s46 -21 46 -46z" />
    <glyph glyph-name="ring" unicode="&#x2da;" horiz-adv-x="240" 
d="M204 534c0 -45 -37 -82 -82 -82s-82 37 -82 82s37 82 82 82s82 -37 82 -82zM66 534c0 -31 25 -56 56 -56s56 25 56 56s-25 56 -56 56s-56 -25 -56 -56z" />
    <glyph glyph-name="cedilla" unicode="&#xb8;" horiz-adv-x="235" 
d="M141 -41c20 -7 39 -30 39 -55c0 -33 -29 -58 -64 -58c-24 0 -47 12 -61 25v43c13 -14 32 -23 47 -23c19 0 27 11 27 24c0 16 -17 33 -35 38l16 47h44z" />
    <glyph glyph-name="hungarumlaut" unicode="&#x2dd;" horiz-adv-x="311" 
d="M170 654l-64 -175l-37 12l65 177zM278 654l-65 -175l-36 12l64 177z" />
    <glyph glyph-name="ogonek" unicode="&#x2db;" horiz-adv-x="230" 
d="M93 -72c0 -20 10 -36 35 -36c18 0 38 11 49 22v-40c-13 -12 -38 -22 -63 -22c-37 0 -67 22 -67 63c0 33 15 62 31 85h45c-17 -27 -30 -50 -30 -72z" />
    <glyph glyph-name="caron" unicode="&#x2c7;" horiz-adv-x="342" 
d="M80 617l95 -95l94 94l26 -26l-120 -120l-121 121z" />
  </font>
</defs>
</svg>
