<svg width="42" height="42" viewBox="0 0 42 42" fill="none" xmlns="http://www.w3.org/2000/svg">
<path d="M35.7374 4.52051H6.27827C5.56981 4.52051 4.99744 5.09288 4.99744 5.80134V35.2605C4.99744 35.9689 5.56981 36.5413 6.27827 36.5413H35.7374C36.4458 36.5413 37.0182 35.9689 37.0182 35.2605V5.80134C37.0182 5.09288 36.4458 4.52051 35.7374 4.52051ZM32.039 13.8666H29.4813C27.476 13.8666 27.0878 14.8192 27.0878 16.2201V19.3061H31.8749L31.2505 24.1372H27.0878V36.5413H22.0965V24.1412H17.9218V19.3061H22.0965V15.7438C22.0965 11.6091 24.6222 9.35565 28.3126 9.35565C30.0817 9.35565 31.5987 9.48773 32.043 9.54777V13.8666H32.039Z" fill="white"/>
</svg>
