<svg width="42" height="42" viewBox="0 0 42 42" fill="none" xmlns="http://www.w3.org/2000/svg">
<path d="M35.7252 4.52051H6.26606C5.5576 4.52051 4.98523 5.09288 4.98523 5.80134V35.2605C4.98523 35.9689 5.5576 36.5413 6.26606 36.5413H35.7252C36.4336 36.5413 37.006 35.9689 37.006 35.2605V5.80134C37.006 5.09288 36.4336 4.52051 35.7252 4.52051ZM14.4834 31.8062H9.73231V16.5243H14.4834V31.8062ZM12.1099 14.4349C11.5652 14.4349 11.0328 14.2734 10.5799 13.9708C10.1271 13.6683 9.77411 13.2382 9.56569 12.735C9.35726 12.2318 9.30272 11.6781 9.40898 11.1439C9.51523 10.6097 9.77751 10.1191 10.1626 9.73393C10.5478 9.34881 11.0384 9.08654 11.5726 8.98028C12.1068 8.87402 12.6605 8.92856 13.1637 9.13699C13.6669 9.34541 14.097 9.69837 14.3995 10.1512C14.7021 10.6041 14.8636 11.1365 14.8636 11.6812C14.8596 13.2021 13.6268 14.4349 12.1099 14.4349ZM32.2709 31.8062H27.5239V24.3734C27.5239 22.6002 27.4918 20.3228 25.0543 20.3228C22.5847 20.3228 22.2044 22.252 22.2044 24.2453V31.8062H17.4613V16.5243H22.0163V18.6137H22.0803C22.7127 17.4129 24.2617 16.144 26.5752 16.144C31.3864 16.144 32.2709 19.3101 32.2709 23.4248V31.8062Z" fill="white"/>
</svg>
