<svg width="195" height="178" viewBox="0 0 195 178" fill="none" xmlns="http://www.w3.org/2000/svg">
<path d="M63.1343 81.1164C61.5581 79.0213 59.5355 77.3559 57.2341 76.2581C55.0429 75.1161 52.6426 74.5008 50.2031 74.4559C49.0163 74.4578 47.8318 74.5674 46.6625 74.7835C45.5197 74.9805 44.4227 75.407 43.4297 76.0401C42.4765 76.6531 41.6544 77.4714 41.0161 78.4426C40.3296 79.5593 39.9887 80.8767 40.0411 82.21C40.002 83.3577 40.2691 84.4937 40.8113 85.4867C41.3903 86.4258 42.1655 87.2096 43.0765 87.7769C44.1982 88.4998 45.3842 89.1034 46.6171 89.579C47.9866 90.1245 49.5257 90.69 51.2345 91.2755C53.6987 92.1454 56.2652 93.1098 58.9338 94.1686C61.5396 95.1897 63.9932 96.6059 66.2187 98.3731C68.4184 100.134 70.2669 102.343 71.6565 104.872C73.1802 107.825 73.9252 111.162 73.8126 114.528C73.9073 118.509 73.1165 122.457 71.5045 126.05C70.0385 129.195 67.9143 131.941 65.2952 134.077C62.6235 136.227 59.5944 137.82 56.367 138.775C52.9961 139.796 49.5075 140.31 46.0027 140.303C40.8518 140.312 35.7416 139.332 30.9179 137.41C26.3399 135.678 22.1934 132.858 18.7937 129.165L30.2888 116.717C32.2171 119.172 34.6137 121.163 37.3197 122.558C39.9946 124.062 42.9676 124.867 45.9928 124.907C47.2693 124.91 48.5423 124.763 49.7886 124.47C50.9395 124.215 52.0355 123.733 53.0201 123.05C53.9516 122.388 54.7109 121.487 55.2277 120.429C55.8022 119.212 56.0841 117.861 56.0481 116.499C56.0845 115.177 55.7255 113.877 55.0229 112.786C54.2307 111.662 53.238 110.716 52.1016 110C50.6117 109.056 49.0292 108.287 47.3824 107.709C45.5019 107.018 43.363 106.272 40.9658 105.469C38.6398 104.669 36.3611 103.721 34.1421 102.63C31.9627 101.57 29.9541 100.151 28.1904 98.4253C26.4131 96.6687 24.9823 94.5531 23.9814 92.202C22.8505 89.3928 22.3065 86.3558 22.3871 83.3009C22.2825 79.4586 23.1315 75.6548 24.8485 72.2727C26.4423 69.2704 28.6555 66.6919 31.3214 64.7314C34.0652 62.733 37.1236 61.2745 40.3514 60.425C43.6713 59.5194 47.0849 59.0609 50.5121 59.0601C54.8006 59.0949 59.0521 59.9074 63.084 61.4625C67.2435 62.9919 71.0667 65.4069 74.3203 68.5601L63.1343 81.1164Z" fill="white"/>
<path d="M102.747 66.5936C102.756 67.9295 102.493 69.2516 101.977 70.4693C101.486 71.6366 100.79 72.693 99.9262 73.5816C99.0354 74.4785 97.9896 75.1831 96.8467 75.6565C95.6549 76.1642 94.3826 76.4234 93.0988 76.4199C91.8287 76.4559 90.5649 76.2182 89.3833 75.721C88.2018 75.2239 87.127 74.4775 86.2236 73.5268C85.3352 72.6385 84.6297 71.5636 84.1517 70.3701C83.6738 69.1767 83.4339 67.8908 83.447 66.5936C83.4435 65.2987 83.6884 64.0167 84.1669 62.8262C84.6319 61.6431 85.3323 60.5813 86.2199 59.7139C87.1277 58.8263 88.1686 58.1065 89.2994 57.5842C90.4964 57.0299 91.7898 56.7506 93.0952 56.7647C94.3788 56.762 95.6511 57.0211 96.843 57.5281C97.9853 58.0026 99.0309 58.7071 99.9225 59.6029C100.786 60.4918 101.482 61.5482 101.973 62.7153C102.491 63.9335 102.755 65.2565 102.747 66.5936ZM84.6845 138.335V83.956H101.516V138.335H84.6845Z" fill="white"/>
<path d="M146.878 76.9679V138.337H129.327V76.9679H108.802V61.0239H167.402V76.9679H146.878Z" fill="white"/>
<path d="M175.406 138.337V61.0239H193.059V138.337H175.406Z" fill="white"/>
<path d="M20.7522 104.617C17.4973 96.7473 15.8171 88.2427 15.8184 79.6444C15.8184 63.1356 21.9817 47.303 32.9525 35.6296C43.9233 23.9561 58.8028 17.398 74.3178 17.398C85.0119 17.3991 95.5008 20.5217 104.643 26.4258C113.785 32.3299 121.229 40.7893 126.166 50.8832H143.545C138.104 36.0581 128.587 23.3245 116.237 14.3472C103.886 5.36986 89.2774 0.566631 74.3203 0.56543C54.6094 0.56543 35.7058 8.89707 21.7681 23.7275C7.83042 38.5579 0.00030069 58.6723 0.00030069 79.6457C-0.0147264 92.5787 2.96537 105.316 8.67709 116.732L20.7522 104.617Z" fill="white"/>
<path d="M38.7387 176.503C37.1539 177.238 35.4387 177.599 33.7104 177.563C32.0736 177.579 30.4484 177.269 28.9189 176.649C27.4984 176.076 26.2017 175.203 25.1072 174.082C24.0174 172.95 23.1561 171.592 22.5759 170.093C21.9506 168.471 21.6386 166.731 21.6586 164.978C21.6351 163.2 21.9531 161.436 22.5931 159.793C23.1802 158.296 24.0579 156.949 25.1685 155.838C26.2866 154.738 27.6 153.886 29.0317 153.334C30.5639 152.74 32.184 152.444 33.8147 152.459C35.4053 152.462 36.983 152.764 38.475 153.351C39.9013 153.873 41.1801 154.771 42.1922 155.961L38.5228 159.864C38.0181 159.125 37.3272 158.553 36.5299 158.214C35.7284 157.86 34.8691 157.677 34.0011 157.675C33.1041 157.664 32.215 157.853 31.3913 158.231C30.619 158.587 29.9239 159.108 29.3493 159.762C28.7701 160.431 28.319 161.215 28.0211 162.068C27.697 162.999 27.5361 163.986 27.5465 164.979C27.5353 165.989 27.6961 166.993 28.0211 167.941C28.3116 168.794 28.7575 169.578 29.3334 170.247C29.8972 170.891 30.5815 171.401 31.3422 171.745C32.1523 172.11 33.0245 172.293 33.9042 172.283C34.882 172.308 35.8507 172.078 36.7249 171.611C37.4889 171.197 38.1503 170.597 38.6553 169.86L42.4203 173.63C41.4023 174.859 40.1464 175.839 38.7387 176.503Z" fill="white"/>
<path d="M60.7562 168.476C60.7739 169.755 60.5365 171.023 60.0596 172.197C59.621 173.27 58.9746 174.234 58.1624 175.023C57.3498 175.805 56.4057 176.416 55.3797 176.824C54.2977 177.256 53.1504 177.474 51.9948 177.465C50.8446 177.47 49.7031 177.253 48.6259 176.824C47.597 176.421 46.6515 175.81 45.8419 175.023C45.0379 174.23 44.3973 173.267 43.9606 172.197C43.484 171.023 43.2466 169.755 43.2641 168.476C43.2457 167.204 43.4832 165.941 43.9606 164.774C44.3979 163.714 45.0387 162.762 45.8419 161.98C46.6514 161.206 47.5978 160.611 48.6259 160.23C49.7076 159.823 50.8473 159.618 51.9948 159.624C53.1477 159.615 54.2932 159.82 55.3797 160.23C56.405 160.616 57.3501 161.211 58.1624 161.98C58.9737 162.758 59.6204 163.71 60.0596 164.774C60.5373 165.941 60.7749 167.204 60.7562 168.476ZM55.7599 168.476C55.7594 167.938 55.6736 167.403 55.506 166.895C55.3457 166.396 55.0986 165.933 54.7775 165.531C54.4525 165.131 54.055 164.805 53.6088 164.572C53.1054 164.316 52.5526 164.189 51.9948 164.201C51.437 164.189 50.8841 164.316 50.3809 164.572C49.9371 164.802 49.5436 165.129 49.2256 165.531C48.9143 165.934 48.6783 166.397 48.5302 166.895C48.3722 167.405 48.2919 167.939 48.2923 168.476C48.2919 169.014 48.3722 169.548 48.5302 170.058C48.6839 170.566 48.9251 171.04 49.2415 171.454C49.5592 171.872 49.9585 172.211 50.4115 172.447C50.9144 172.704 51.4668 172.831 52.0242 172.818C52.5821 172.831 53.1349 172.704 53.6382 172.447C54.0907 172.21 54.4898 171.871 54.8082 171.454C55.124 171.039 55.3651 170.566 55.5195 170.058C55.6774 169.548 55.7585 169.014 55.7599 168.476Z" fill="white"/>
<path d="M74.3902 176.923V167.768C74.3917 167.316 74.3544 166.865 74.2786 166.421C74.2143 166.027 74.0901 165.646 73.9107 165.294C73.7445 164.971 73.4985 164.703 73.1994 164.519C72.8454 164.316 72.4471 164.217 72.0454 164.233C71.6234 164.223 71.2053 164.321 70.8263 164.519C70.4826 164.706 70.1848 164.977 69.9568 165.309C69.7184 165.66 69.5418 166.053 69.4356 166.471C69.3209 166.915 69.2648 167.375 69.2688 167.836V176.923H64.0455V160.163H69.0738V162.485H69.1376C69.3446 162.101 69.5946 161.745 69.882 161.424C70.1949 161.07 70.5572 160.77 70.9563 160.533C71.3836 160.279 71.836 160.075 72.3054 159.926C72.8078 159.767 73.3298 159.687 73.8543 159.69C74.7835 159.661 75.7056 159.869 76.5438 160.297C77.2438 160.667 77.855 161.203 78.3307 161.863C78.7927 162.521 79.1263 163.27 79.3118 164.067C79.5102 164.881 79.6111 165.718 79.6123 166.558V176.925L74.3902 176.923Z" fill="white"/>
<path d="M92.8045 165.11C92.3642 164.671 91.8623 164.308 91.3169 164.033C90.7553 163.744 90.1392 163.594 89.5153 163.596C89.0501 163.591 88.5895 163.694 88.1663 163.9C87.9747 163.985 87.8127 164.131 87.7028 164.318C87.5929 164.505 87.5406 164.724 87.5531 164.944C87.55 165.167 87.6143 165.386 87.7366 165.567C87.8589 165.749 88.0327 165.884 88.2325 165.953C88.9481 166.237 89.6832 166.462 90.4314 166.626C91.0403 166.766 91.6377 166.957 92.2183 167.198C92.8038 167.435 93.3527 167.764 93.847 168.174C94.3298 168.575 94.7284 169.08 95.017 169.655C95.3256 170.301 95.4778 171.018 95.4597 171.743C95.4941 172.619 95.3121 173.49 94.9319 174.268C94.5517 175.047 93.9865 175.706 93.2926 176.18C92.629 176.637 91.8951 176.968 91.1244 177.156C90.3373 177.356 89.531 177.457 88.7218 177.458C87.4371 177.46 86.1606 177.239 84.9421 176.806C83.7889 176.419 82.734 175.757 81.8577 174.871L84.7679 171.608C85.2548 172.165 85.8339 172.622 86.4763 172.955C87.1436 173.312 87.8806 173.496 88.6274 173.493C89.0615 173.49 89.4892 173.38 89.8771 173.173C90.0748 173.074 90.2394 172.912 90.3489 172.711C90.4585 172.51 90.5078 172.277 90.4903 172.045C90.4912 171.794 90.4185 171.549 90.2825 171.344C90.1464 171.139 89.9537 170.984 89.7312 170.901C88.9642 170.567 88.1703 170.308 87.3593 170.127C86.7998 169.99 86.2502 169.81 85.7147 169.59C85.1802 169.373 84.6829 169.065 84.243 168.676C83.8036 168.286 83.4431 167.805 83.1834 167.263C82.8944 166.635 82.753 165.942 82.7713 165.243C82.7452 164.342 82.9535 163.451 83.3735 162.668C83.7623 161.975 84.2915 161.383 84.9224 160.935C85.5667 160.481 86.2781 160.145 87.0269 159.942C87.7754 159.732 88.5462 159.624 89.3203 159.622C90.4972 159.622 91.6666 159.821 92.7849 160.211C93.8507 160.566 94.8286 161.17 95.6473 161.978L92.8045 165.11Z" fill="white"/>
<path d="M108.837 176.925V174.603H108.774C108.575 174.998 108.325 175.36 108.03 175.68C107.714 176.026 107.352 176.321 106.955 176.555C106.524 176.811 106.067 177.015 105.593 177.162C105.085 177.321 104.558 177.401 104.029 177.398C103.104 177.429 102.187 177.221 101.355 176.792C100.662 176.417 100.057 175.882 99.5841 175.226C99.1241 174.572 98.7907 173.829 98.603 173.037C98.4029 172.219 98.3024 171.376 98.3037 170.53V160.164H103.523V169.252C103.522 169.702 103.553 170.153 103.618 170.598C103.675 171 103.799 171.388 103.986 171.743C104.154 172.068 104.399 172.34 104.697 172.532C105.055 172.74 105.46 172.839 105.867 172.819C106.27 172.842 106.671 172.755 107.033 172.566C107.395 172.378 107.706 172.095 107.937 171.743C108.419 171.002 108.669 170.118 108.65 169.218V160.164H113.837V176.926L108.837 176.925Z" fill="white"/>
<path d="M117.947 176.923V151.477H123.235V176.923H117.947Z" fill="white"/>
<path d="M132.941 164.269V170.69C132.899 171.315 133.05 171.937 133.369 172.463C133.564 172.681 133.804 172.848 134.07 172.951C134.336 173.053 134.621 173.089 134.902 173.054C135.173 173.053 135.443 173.031 135.71 172.986C135.955 172.954 136.194 172.886 136.422 172.785L136.485 176.831C136.042 176.988 135.587 177.106 135.125 177.184C134.582 177.285 134.032 177.336 133.481 177.336C132.578 177.361 131.679 177.218 130.823 176.913C130.16 176.671 129.566 176.253 129.097 175.698C128.656 175.152 128.337 174.505 128.164 173.808C127.966 173.01 127.871 172.187 127.88 171.362V164.275H125.348V160.168H127.845V155.757H132.939V160.167H136.64V164.273L132.941 164.269Z" fill="white"/>
<path d="M155.778 168.476C155.795 169.755 155.558 171.023 155.081 172.197C154.643 173.271 153.996 174.234 153.184 175.023C152.371 175.805 151.427 176.416 150.401 176.824C148.221 177.678 145.827 177.678 143.647 176.824C142.619 176.422 141.673 175.81 140.864 175.023C140.06 174.23 139.419 173.267 138.982 172.197C138.506 171.023 138.268 169.755 138.286 168.476C138.267 167.204 138.505 165.941 138.982 164.774C139.42 163.714 140.06 162.762 140.864 161.98C141.673 161.206 142.619 160.611 143.647 160.23C145.835 159.422 148.214 159.422 150.401 160.23C151.427 160.616 152.372 161.211 153.184 161.98C153.995 162.758 154.642 163.71 155.081 164.774C155.559 165.941 155.796 167.204 155.778 168.476ZM150.781 168.476C150.781 167.938 150.695 167.403 150.528 166.895C150.367 166.396 150.12 165.933 149.799 165.531C149.474 165.131 149.077 164.805 148.63 164.572C147.904 164.189 147.078 164.076 146.284 164.25C145.49 164.423 144.774 164.875 144.248 165.531C143.937 165.934 143.701 166.397 143.553 166.895C143.236 167.922 143.236 169.031 143.553 170.058C143.707 170.566 143.948 171.04 144.264 171.454C144.582 171.872 144.981 172.211 145.434 172.447C145.941 172.692 146.491 172.818 147.047 172.818C147.603 172.818 148.153 172.692 148.66 172.447C149.112 172.21 149.512 171.871 149.83 171.454C150.146 171.04 150.388 170.566 150.542 170.058C150.7 169.548 150.781 169.014 150.783 168.476H150.781Z" fill="white"/>
<path d="M169.287 164.705C169.064 164.641 168.836 164.597 168.606 164.575C168.385 164.553 168.169 164.541 167.957 164.541C167.35 164.52 166.747 164.658 166.201 164.943C165.763 165.18 165.375 165.512 165.063 165.916C164.786 166.284 164.577 166.706 164.45 167.158C164.334 167.538 164.27 167.934 164.26 168.333V176.926H159.071V160.181H164.07V162.604H164.133C164.523 161.759 165.112 161.035 165.842 160.503C166.596 159.955 167.491 159.671 168.404 159.689C168.609 159.689 168.813 159.7 169.017 159.723C169.183 159.739 169.348 159.772 169.507 159.823L169.287 164.705Z" fill="white"/>
<path d="M171.659 176.927V160.161H176.847V176.927H171.659ZM175.614 157.675H171.689L174.978 152.829H180.229L175.614 157.675Z" fill="white"/>
<path d="M180.734 162.451C181.661 161.508 182.766 160.786 183.975 160.331C185.187 159.863 186.466 159.624 187.755 159.624C188.898 159.594 190.037 159.77 191.124 160.146C191.992 160.458 192.762 161.017 193.354 161.761C193.959 162.57 194.387 163.513 194.603 164.521C194.886 165.817 195.019 167.146 194.998 168.476V176.925H190.254V175.141H190.159C189.725 175.867 189.089 176.432 188.34 176.756C187.507 177.142 186.608 177.338 185.7 177.329C185.038 177.325 184.379 177.235 183.737 177.06C183.076 176.887 182.449 176.591 181.885 176.185C181.315 175.767 180.844 175.214 180.509 174.569C180.13 173.803 179.945 172.944 179.972 172.078C179.924 171.012 180.258 169.965 180.906 169.15C181.566 168.381 182.391 167.793 183.309 167.432C184.362 167.011 185.463 166.739 186.583 166.625C187.749 166.492 188.921 166.424 190.094 166.422V166.154C190.118 165.798 190.055 165.443 189.911 165.121C189.767 164.8 189.547 164.524 189.272 164.32C188.668 163.912 187.962 163.707 187.247 163.732C186.509 163.732 185.78 163.904 185.112 164.237C184.472 164.542 183.879 164.951 183.356 165.449L180.734 162.451ZM190.254 169.62H189.588C189.021 169.62 188.444 169.648 187.872 169.704C187.345 169.749 186.825 169.857 186.321 170.024C185.903 170.16 185.519 170.396 185.199 170.714C185.051 170.87 184.935 171.056 184.859 171.262C184.782 171.467 184.747 171.688 184.755 171.908C184.748 172.193 184.819 172.475 184.961 172.716C185.094 172.936 185.273 173.12 185.484 173.255C185.709 173.396 185.955 173.492 186.212 173.541C186.473 173.596 186.738 173.625 187.003 173.626C187.445 173.658 187.888 173.592 188.304 173.433C188.72 173.273 189.101 173.024 189.423 172.701C189.711 172.362 189.934 171.966 190.078 171.536C190.222 171.105 190.284 170.649 190.262 170.192L190.254 169.62Z" fill="white"/>
</svg>
