<svg width="22" height="22" viewBox="0 0 22 22" fill="none" xmlns="http://www.w3.org/2000/svg">
<g clip-path="url(#clip0_108_976)">
<path d="M20.9802 1.43228L16.7146 0.447904C16.2511 0.341264 15.7753 0.583256 15.5867 1.01802L13.6179 5.61177C13.4456 6.01372 13.5605 6.4854 13.9009 6.76021L16.3865 8.79458C14.9099 11.9405 12.33 14.5573 9.1185 16.0626L7.08412 13.577C6.80521 13.2366 6.33764 13.1217 5.93568 13.294L1.34193 15.2627C0.903064 15.4555 0.661072 15.9313 0.767712 16.3948L1.75209 20.6604C1.85463 21.1034 2.24838 21.4233 2.71185 21.4233C13.216 21.4233 21.7431 12.9126 21.7431 2.39205C21.7431 1.93267 21.4273 1.53482 20.9802 1.43228Z" fill="white"/>
</g>
<defs>
<clipPath id="clip0_108_976">
<rect width="21" height="21" fill="white" transform="translate(0.743164 0.42334)"/>
</clipPath>
</defs>
</svg>
