<svg width="133" height="129" viewBox="0 0 133 129" fill="none" xmlns="http://www.w3.org/2000/svg">
<path d="M80.5316 128.997C77.1068 129.013 73.8123 127.684 71.3571 125.295L11.477 67.0824C9.70829 65.4973 8.28831 63.5614 7.30728 61.3978C6.32625 59.2342 5.80562 56.8901 5.77844 54.5145L0.795891 14.7956C0.553409 12.8859 0.761784 10.9459 1.40429 9.1313C2.04679 7.31675 3.10553 5.67819 4.49551 4.34716C5.90471 2.97859 7.60191 1.94261 9.46291 1.31503C11.3239 0.687463 13.3016 0.484183 15.2512 0.720074L56.2901 5.6159C61.2725 6.13265 65.9246 8.35195 69.4626 11.8999L128.656 69.5303C129.868 70.6859 130.832 72.0755 131.491 73.6149C132.15 75.1543 132.49 76.8115 132.49 78.4861C132.49 80.1607 132.15 81.8179 131.491 83.3573C130.832 84.8967 129.868 86.2863 128.656 87.4419L89.706 125.295C87.2508 127.684 83.9564 129.013 80.5316 128.997ZM5.16681 14.2732L10.2538 54.3652V54.604C10.2538 54.7682 9.94051 59.3506 14.6396 63.9031L74.5048 122.235C76.1248 123.793 78.2846 124.663 80.5316 124.663C82.7786 124.663 84.9384 123.793 86.5584 122.235L125.509 84.3223C126.298 83.5632 126.927 82.6523 127.356 81.6443C127.785 80.6363 128.006 79.5519 128.006 78.4562C128.006 77.3606 127.785 76.2762 127.356 75.2682C126.927 74.2602 126.298 73.3493 125.509 72.5902L66.3298 14.9747C63.5802 12.1533 59.9365 10.3752 56.0216 9.94453H55.8874L14.6993 5.10841C13.4274 4.93768 12.1334 5.0542 10.9123 5.44939C9.69128 5.84458 8.57421 6.50841 7.64316 7.39213C6.72031 8.26465 6.01536 9.34201 5.5852 10.5373C5.15504 11.7326 5.01173 13.0123 5.16681 14.2732V14.2732ZM15.6093 22.6916C13.6125 22.7002 11.6911 21.929 10.2538 20.5422C9.54605 19.8688 8.98254 19.0584 8.59748 18.1603C8.21243 17.2622 8.01387 16.2952 8.01387 15.318C8.01387 14.3408 8.21243 13.3737 8.59748 12.4757C8.98254 11.5776 9.54605 10.7672 10.2538 10.0938C11.689 8.70665 13.6064 7.93134 15.6018 7.93134C17.5972 7.93134 19.5147 8.70665 20.9498 10.0938C21.6576 10.7672 22.2211 11.5776 22.6061 12.4757C22.9912 13.3737 23.1898 14.3408 23.1898 15.318C23.1898 16.2952 22.9912 17.2622 22.6061 18.1603C22.2211 19.0584 21.6576 19.8688 20.9498 20.5422C19.5197 21.9309 17.6021 22.7026 15.6093 22.6916V22.6916ZM15.6093 12.2432C14.7842 12.2391 13.9908 12.561 13.4014 13.1388C13.115 13.417 12.8873 13.75 12.7317 14.1179C12.5762 14.4858 12.4961 14.8812 12.4961 15.2807C12.4961 15.6801 12.5762 16.0756 12.7317 16.4435C12.8873 16.8114 13.115 17.1443 13.4014 17.4226C13.9932 17.9909 14.7816 18.3083 15.6018 18.3083C16.422 18.3083 17.2105 17.9909 17.8022 17.4226C18.0886 17.1443 18.3164 16.8114 18.4719 16.4435C18.6274 16.0756 18.7075 15.6801 18.7075 15.2807C18.7075 14.8812 18.6274 14.4858 18.4719 14.1179C18.3164 13.75 18.0886 13.417 17.8022 13.1388C17.2111 12.5782 16.4235 12.2726 15.6093 12.288V12.2432Z" fill="#2091F9"/>
<path d="M82.5157 73.8738C82.677 77.188 81.6567 80.4518 79.6366 83.0833C77.467 85.5496 74.4339 87.0884 71.1633 87.3821V92.6362H64.9276V87.3075C63.0112 87.2164 61.1199 86.8339 59.3185 86.1731C57.6094 85.5322 55.9617 84.7379 54.3957 83.7998L54.7239 72.829C56.363 73.948 58.1311 74.8652 59.9898 75.5605C62.1135 76.3235 64.3572 76.6976 66.6134 76.665C67.3653 76.6979 68.1031 76.4536 68.6869 75.9784C68.9255 75.7855 69.1187 75.5424 69.2528 75.2664C69.3868 74.9904 69.4585 74.6882 69.4627 74.3813C69.4695 74.0504 69.4138 73.7213 69.2986 73.4111C69.1466 73.1106 68.9207 72.8538 68.6422 72.6648C68.232 72.3705 67.792 72.1203 67.3294 71.9185C66.7625 71.6647 66.0316 71.3513 65.1216 71.008C61.7908 69.8432 58.7808 67.9104 56.335 65.3658C54.3029 62.9789 53.2384 59.9167 53.3514 56.7832C53.2591 53.6347 54.3202 50.5611 56.335 48.1409C58.5235 45.7056 61.5728 44.2175 64.8381 43.9914V38.4686H71.0589V43.7973C72.6206 43.9904 74.1697 44.2745 75.6983 44.6481C77.0189 44.9847 78.2919 45.4862 79.4874 46.1407L79.2637 57.3504C78.6063 56.913 77.9066 56.5429 77.1752 56.2458C76.3076 55.8849 75.4212 55.571 74.5198 55.3055C73.5398 55.0174 72.5435 54.7881 71.5362 54.6189C70.5497 54.4575 69.5522 54.3727 68.5527 54.3651C67.8979 54.3107 67.247 54.5082 66.7327 54.9174C66.5439 55.0951 66.3946 55.3105 66.2944 55.5496C66.1942 55.7888 66.1453 56.0463 66.1509 56.3056C66.1457 56.5851 66.1912 56.8632 66.2852 57.1265C66.41 57.406 66.6118 57.6442 66.867 57.8131C67.2865 58.0883 67.731 58.3231 68.1946 58.5146C68.7914 58.7833 69.5969 59.1117 70.6412 59.4998C74.1155 60.5766 77.2171 62.6093 79.5918 65.3658C81.5149 67.7812 82.5474 70.7858 82.5157 73.8738V73.8738Z" fill="#2091F9"/>
</svg>
