<svg width="103" height="91" viewBox="0 0 103 91" fill="none" xmlns="http://www.w3.org/2000/svg">
<path d="M39.5828 20.1269L25.1537 35.0702V35.3383L39.5828 50.2816L42.2914 47.4765L30.4414 35.2043L42.2914 22.932L39.5828 20.1269Z" fill="#2091F9"/>
<path d="M62.9443 20.5806L60.2357 23.3857L72.0956 35.658L60.2357 47.9302L62.9443 50.7353L77.3734 35.792V35.5239L62.9443 20.5806Z" fill="#2091F9"/>
<path d="M54.2793 17.0598L44.0178 52.4818L48.2432 53.7946L58.5046 18.3726L54.2793 17.0598Z" fill="#2091F9"/>
<path d="M90.0996 0.883179H12.4274C9.25814 0.883179 6.21872 2.18701 3.97773 4.50785C1.73675 6.82868 0.477783 9.97641 0.477783 13.2586V59.6663C0.477783 62.9484 1.73675 66.0962 3.97773 68.417C6.21872 70.7378 9.25814 72.0417 12.4274 72.0417H46.2845V78.5078H42.1221C38.9528 78.5078 35.9134 79.8116 33.6724 82.1325C31.4315 84.4533 30.1725 87.601 30.1725 90.8832H73.9876C73.9876 87.601 72.7287 84.4533 70.4877 82.1325C68.2467 79.8116 65.2073 78.5078 62.038 78.5078H56.2425V72.0417H90.0996C93.2689 72.0417 96.3083 70.7378 98.5493 68.417C100.79 66.0962 102.049 62.9484 102.049 59.6663V13.2586C102.049 9.97641 100.79 6.82868 98.5493 4.50785C96.3083 2.18701 93.2689 0.883179 90.0996 0.883179ZM95.5765 61.832C95.5713 63.3073 95.0031 64.7206 93.9958 65.7638C92.9884 66.807 91.6238 67.3954 90.1992 67.4009H12.3278C10.9032 67.3954 9.53855 66.807 8.53125 65.7638C7.52394 64.7206 6.95572 63.3073 6.95047 61.832V11.0929C6.95572 9.61757 7.52394 8.20425 8.53125 7.16105C9.53855 6.11785 10.9032 5.52938 12.3278 5.52395H90.1992C91.6238 5.52938 92.9884 6.11785 93.9958 7.16105C95.0031 8.20425 95.5713 9.61757 95.5765 11.0929V61.832Z" fill="#2091F9"/>
</svg>
