<svg width="152" height="126" viewBox="0 0 152 126" fill="none" xmlns="http://www.w3.org/2000/svg">
<path d="M83.1437 102.824H133.476C138.188 102.824 142.706 100.951 146.037 97.6179C149.369 94.2845 151.24 89.7635 151.24 85.0494V18.395C151.24 13.6809 149.369 9.15988 146.037 5.82652C142.706 2.49315 138.188 0.620483 133.476 0.620483L18.0076 0.620483C13.2961 0.620483 8.7777 2.49315 5.44623 5.82652C2.11476 9.15988 0.243164 13.6809 0.243164 18.395L0.243164 85.0494C0.243164 89.7635 2.11476 94.2845 5.44623 97.6179C8.7777 100.951 13.2961 102.824 18.0076 102.824H68.34H83.1437ZM141.618 88.1599C141.61 90.2789 140.766 92.3088 139.268 93.8071C137.771 95.3054 135.742 96.1506 133.624 96.1585H17.8595C15.7418 96.1506 13.713 95.3054 12.2155 93.8071C10.7181 92.3088 9.87334 90.2789 9.86554 88.1599V15.2844C9.87334 13.1655 10.7181 11.1356 12.2155 9.63726C13.713 8.13893 15.7418 7.29373 17.8595 7.28592H133.624C135.742 7.29373 137.771 8.13893 139.268 9.63726C140.766 11.1356 141.61 13.1655 141.618 15.2844V88.1599Z" fill="#2091F9"/>
<path d="M96.941 45.2937L62.1524 25.1937C60.9947 24.525 59.6814 24.1731 58.3447 24.1737C57.0079 24.1743 55.6949 24.5272 54.5378 25.1969C53.3807 25.8666 52.4203 26.8296 51.7534 27.9887C51.0865 29.1479 50.7365 30.4624 50.7388 31.7999V71.9999C50.7391 73.3362 51.091 74.6488 51.759 75.8059C52.4269 76.963 53.3875 77.9238 54.5442 78.5918C55.7009 79.2598 57.0129 79.6114 58.3484 79.6113C59.6839 79.6112 60.9958 79.2594 62.1524 78.5913L96.941 58.4913C98.1002 57.8238 99.0632 56.8624 99.7327 55.7039C100.402 54.5454 100.755 53.2308 100.755 51.8925C100.755 50.5543 100.402 49.2396 99.7327 48.0811C99.0632 46.9226 98.1002 45.9612 96.941 45.2937V45.2937Z" fill="#2091F9"/>
<path d="M138.45 113.711H61.4712V119.636H138.45C139.235 119.636 139.989 119.323 140.544 118.768C141.099 118.212 141.411 117.459 141.411 116.673C141.411 115.887 141.099 115.134 140.544 114.578C139.989 114.023 139.235 113.711 138.45 113.711Z" fill="#2091F9"/>
<path d="M55.5495 113.711H12.6189C11.8337 113.711 11.0806 114.023 10.5254 114.578C9.97014 115.134 9.6582 115.887 9.6582 116.673C9.6582 117.459 9.97014 118.212 10.5254 118.768C11.0806 119.323 11.8337 119.636 12.6189 119.636H55.5495V113.711Z" fill="#2091F9"/>
<path d="M58.5106 112.23C58.5106 109.775 56.5223 107.786 54.0695 107.786C51.6168 107.786 49.6284 109.775 49.6284 112.23V121.117C49.6284 123.571 51.6168 125.56 54.0695 125.56C56.5223 125.56 58.5106 123.571 58.5106 121.117V112.23Z" fill="#2091F9"/>
</svg>
