<svg width="152" height="115" viewBox="0 0 152 115" fill="none" xmlns="http://www.w3.org/2000/svg">
<path d="M142.098 45.007H118.306C115.949 45.0241 113.694 45.973 112.034 47.6465C110.374 49.3201 109.442 51.5826 109.442 53.9408V99.8864C109.445 102.255 110.387 104.525 112.061 106.2C113.735 107.874 116.004 108.817 118.371 108.82H142.163C144.53 108.817 146.799 107.874 148.473 106.2C150.147 104.525 151.089 102.255 151.092 99.8864V53.9408C151.092 52.7621 150.859 51.595 150.406 50.5069C149.954 49.4187 149.29 48.4309 148.454 47.6005C147.618 46.77 146.626 46.1133 145.535 45.6682C144.444 45.2231 143.276 44.9984 142.098 45.007V45.007ZM148.489 99.8864C148.486 101.564 147.818 103.172 146.632 104.358C145.447 105.544 143.84 106.212 142.163 106.216H118.306C116.64 106.195 115.05 105.52 113.878 104.335C112.707 103.151 112.048 101.553 112.045 99.8864V53.9408C112.048 52.2632 112.716 50.6554 113.902 49.4692C115.087 48.2829 116.694 47.615 118.371 47.6116H123.759C123.763 48.1286 123.969 48.6235 124.335 48.9891C124.7 49.3547 125.195 49.5616 125.712 49.565H134.823C135.34 49.565 135.837 49.3592 136.203 48.9929C136.569 48.6265 136.775 48.1297 136.775 47.6116H142.163C143.84 47.615 145.447 48.2829 146.632 49.4692C147.818 50.6554 148.486 52.2632 148.489 53.9408V99.8864Z" fill="#2091F9"/>
<path d="M130.202 104.262C131.28 104.262 132.154 103.388 132.154 102.309C132.154 101.23 131.28 100.355 130.202 100.355C129.124 100.355 128.25 101.23 128.25 102.309C128.25 103.388 129.124 104.262 130.202 104.262Z" fill="#2091F9"/>
<path d="M80.573 98.8706H72.9978V90.7051H106.735V84.8447H15.6246C13.7626 84.8378 11.9789 84.0947 10.6623 82.7773C9.34566 81.46 8.60296 79.6752 8.5961 77.8122V13.7385C8.60296 11.8754 9.34566 10.0907 10.6623 8.77333C11.9789 7.45597 13.7626 6.71284 15.6246 6.70598H117.381C119.243 6.71284 121.027 7.45597 122.344 8.77333C123.66 10.0907 124.403 11.8754 124.41 13.7385V42.78H132.87V16.4733C132.87 12.3286 131.225 8.35361 128.295 5.42284C125.366 2.49207 121.394 0.845581 117.251 0.845581L15.7287 0.845581C11.5863 0.845581 7.61362 2.49207 4.68452 5.42284C1.75542 8.35361 0.109863 12.3286 0.109863 16.4733L0.109863 75.0773C0.109863 79.2221 1.75542 83.1971 4.68452 86.1278C7.61362 89.0586 11.5863 90.7051 15.7287 90.7051H59.9821V98.8706H54.5415C50.3992 98.8706 46.4265 100.517 43.4973 103.448C40.5682 106.379 38.9227 110.354 38.9227 114.498H96.1918C96.1918 110.354 94.5462 106.379 91.6171 103.448C88.688 100.517 84.7153 98.8706 80.573 98.8706V98.8706Z" fill="#2091F9"/>
<path d="M123.694 78.8671C124.772 78.8671 125.646 77.9925 125.646 76.9137C125.646 75.8348 124.772 74.9602 123.694 74.9602C122.616 74.9602 121.742 75.8348 121.742 76.9137C121.742 77.9925 122.616 78.8671 123.694 78.8671Z" fill="#2091F9"/>
<path d="M130.202 78.8671C131.28 78.8671 132.154 77.9925 132.154 76.9137C132.154 75.8348 131.28 74.9602 130.202 74.9602C129.124 74.9602 128.25 75.8348 128.25 76.9137C128.25 77.9925 129.124 78.8671 130.202 78.8671Z" fill="#2091F9"/>
<path d="M137.79 75.2858C137.468 75.0722 137.091 74.9589 136.705 74.9601C136.318 74.9613 135.941 75.077 135.621 75.2926C135.301 75.5082 135.051 75.814 134.905 76.1714C134.758 76.5287 134.721 76.9215 134.797 77.3002C134.873 77.6789 135.06 78.0264 135.334 78.2987C135.608 78.5711 135.956 78.7562 136.335 78.8305C136.714 78.9048 137.106 78.8651 137.463 78.7163C137.819 78.5675 138.123 78.3164 138.337 77.9946C138.479 77.7809 138.577 77.5412 138.627 77.2894C138.676 77.0376 138.675 76.7785 138.624 76.5269C138.574 76.2753 138.474 76.0363 138.331 75.8233C138.188 75.6104 138.004 75.4277 137.79 75.2858V75.2858Z" fill="#2091F9"/>
<path d="M53.9166 49.6434C56.0013 49.6434 57.6912 47.9525 57.6912 45.8667C57.6912 43.7809 56.0013 42.09 53.9166 42.09C51.832 42.09 50.1421 43.7809 50.1421 45.8667C50.1421 47.9525 51.832 49.6434 53.9166 49.6434Z" fill="#2091F9"/>
<path d="M66.4904 49.6434C68.575 49.6434 70.2649 47.9525 70.2649 45.8667C70.2649 43.7809 68.575 42.09 66.4904 42.09C64.4057 42.09 62.7158 43.7809 62.7158 45.8667C62.7158 47.9525 64.4057 49.6434 66.4904 49.6434Z" fill="#2091F9"/>
<path d="M81.1585 42.7279C80.5382 42.3093 79.8074 42.0846 79.0592 42.0824C78.3109 42.0802 77.5789 42.3005 76.9561 42.7155C76.3333 43.1304 75.8477 43.7212 75.5612 44.4128C75.2746 45.1044 75.2 45.8656 75.3467 46.5998C75.4935 47.3339 75.855 48.0079 76.3853 48.536C76.9157 49.0641 77.591 49.4226 78.3254 49.566C79.0598 49.7093 79.8202 49.631 80.5101 49.341C81.1999 49.051 81.7881 48.5624 82.1998 47.9372C82.7468 47.1067 82.9442 46.0938 82.7492 45.1184C82.5543 44.1431 81.9827 43.2841 81.1585 42.7279V42.7279Z" fill="#2091F9"/>
</svg>
