<svg width="109" height="130" viewBox="0 0 109 130" fill="none" xmlns="http://www.w3.org/2000/svg">
<path d="M99.8152 129.498C99.789 121.902 96.3543 114.623 90.2611 109.251C84.1678 103.88 75.9111 100.852 67.294 100.829H41.4489C32.8318 100.852 24.5751 103.88 18.4819 109.251C12.3886 114.623 8.95389 121.902 8.92773 129.498H99.8152Z" fill="#2091F9"/>
<path d="M44.4236 82.7352H44.0105C43.6791 82.6883 43.3621 82.5826 43.0785 82.4244C42.7948 82.2663 42.5506 82.059 42.3606 81.8152C42.1705 81.5714 42.0386 81.2961 41.9728 81.006C41.9071 80.7159 41.9088 80.417 41.9779 80.1276V80.1276C42.2588 78.6708 42.6389 74.0236 41.036 71.1974C40.0242 69.6424 38.9211 68.135 37.731 66.6813C32.9057 60.4608 25.6182 51.05 25.6182 43.5038C25.6182 33.6267 34.3929 22.759 53.7106 22.2637C62.221 22.0306 69.4259 24.2304 74.5156 28.5862C76.9161 30.6747 78.8079 33.1732 80.0752 35.9286C81.3425 38.684 81.9586 41.6384 81.8858 44.6109C81.8858 52.2445 76.3995 58.4942 71.9708 63.5492C70.3213 65.239 68.8912 67.086 67.7073 69.0559C66.4061 72.0869 65.6803 75.2861 65.5591 78.5251C65.5591 79.1046 65.2979 79.6604 64.8331 80.0702C64.3682 80.48 63.7377 80.7103 63.0803 80.7103V80.7103C62.4229 80.7103 61.7924 80.48 61.3276 80.0702C60.8627 79.6604 60.6016 79.1046 60.6016 78.5251C60.7134 74.7302 61.563 70.9804 63.1134 67.4389C64.4372 65.0694 66.1036 62.8609 68.0709 60.8687C72.0369 56.3673 76.9448 50.7586 76.9448 44.6255C76.9963 42.2505 76.5033 39.8909 75.4952 37.688C74.4872 35.4851 72.9849 33.4843 71.0784 31.8057C66.9802 28.2949 61.0147 26.5467 53.8594 26.7069C37.8136 27.1294 30.7244 35.4477 30.7244 43.5912C30.7244 49.7971 37.764 58.8875 41.9614 64.3068C43.2881 65.9183 44.5075 67.5965 45.6134 69.3327C48.2739 74.0236 47.0511 80.652 47.0015 80.9871C46.883 81.5035 46.5569 81.9647 46.0833 82.286C45.6096 82.6072 45.0202 82.7667 44.4236 82.7352Z" fill="#2091F9"/>
<path d="M45.5798 90.9517C44.9898 90.9473 44.421 90.7575 43.9755 90.4165C43.53 90.0754 43.2372 89.6055 43.1496 89.0911C43.0619 88.5768 43.1853 88.0517 43.4975 87.6104C43.8097 87.169 44.2902 86.8403 44.8527 86.6833L60.0061 82.5752C60.3235 82.4666 60.6629 82.4169 61.003 82.429C61.3432 82.4412 61.6769 82.515 61.9833 82.6459C62.2897 82.7767 62.5622 82.9618 62.7839 83.1896C63.0055 83.4174 63.1716 83.6829 63.2717 83.9698C63.3719 84.2567 63.4039 84.5586 63.3658 84.8569C63.3277 85.1551 63.2203 85.4432 63.0504 85.7033C62.8804 85.9633 62.6516 86.1897 62.378 86.3684C62.1044 86.547 61.792 86.6741 61.4603 86.7416L46.3234 90.8497C46.0835 90.919 45.8323 90.9535 45.5798 90.9517V90.9517Z" fill="#2091F9"/>
<path d="M49.5792 96.9682C49.0435 96.9659 48.5229 96.8116 48.0944 96.5283C47.6659 96.2449 47.3521 95.8476 47.1996 95.3949C47.1055 95.1213 47.0737 94.8341 47.1059 94.5496C47.1381 94.2652 47.2338 93.9892 47.3873 93.7374C47.5408 93.4856 47.7493 93.2631 48.0007 93.0825C48.252 92.902 48.5414 92.7669 48.8521 92.6852L60.0064 89.7716C60.3231 89.6722 60.6594 89.6305 60.9949 89.6493C61.3304 89.668 61.6581 89.7467 61.9581 89.8806C62.258 90.0144 62.5239 90.2007 62.7396 90.428C62.9553 90.6553 63.1163 90.919 63.2128 91.2028C63.3093 91.4867 63.3392 91.785 63.3009 92.0794C63.2625 92.3738 63.1566 92.6583 62.9897 92.9155C62.8227 93.1727 62.5981 93.3973 62.3295 93.5756C62.061 93.7539 61.7541 93.8822 61.4276 93.9526L50.2567 96.8662C50.0391 96.9339 49.81 96.9684 49.5792 96.9682Z" fill="#2091F9"/>
<path d="M12.381 67.8323C11.8465 67.8311 11.3267 67.6776 10.8993 67.3947C10.4718 67.1118 10.1595 66.7146 10.009 66.2625C9.85848 65.8103 9.87779 65.3274 10.064 64.8857C10.2503 64.444 10.5935 64.0672 11.0425 63.8116L17.7681 60.0239C18.3225 59.7052 18.9978 59.5936 19.6455 59.7138C20.2932 59.834 20.8602 60.1761 21.2218 60.6649C21.5834 61.1536 21.7099 61.749 21.5735 62.32C21.4372 62.891 21.0491 63.3908 20.4947 63.7096L13.7195 67.4973C13.3192 67.7201 12.8544 67.8364 12.381 67.8323Z" fill="#2091F9"/>
<path d="M99.5506 69.4493C99.3752 69.4716 99.1971 69.4716 99.0218 69.4493L91.2219 67.9925C90.9051 67.9313 90.605 67.8157 90.3389 67.6522C90.0727 67.4888 89.8457 67.2807 89.6708 67.04C89.4958 66.7992 89.3764 66.5304 89.3193 66.2489C89.2622 65.9674 89.2686 65.6788 89.338 65.3995C89.4075 65.1201 89.5386 64.8556 89.724 64.621C89.9095 64.3864 90.1455 64.1863 90.4186 64.032C90.6918 63.8778 90.9967 63.7726 91.316 63.7222C91.6353 63.6719 91.9627 63.6775 92.2795 63.7387L100.079 65.1955C100.737 65.2573 101.339 65.5468 101.755 66.0004C102.17 66.4539 102.364 67.0342 102.294 67.6138C102.224 68.1933 101.895 68.7246 101.381 69.0907C100.866 69.4568 100.208 69.6277 99.5506 69.5659V69.4493Z" fill="#2091F9"/>
<path d="M95.2873 46.3737C94.6299 46.3737 93.9995 46.1434 93.5346 45.7336C93.0698 45.3238 92.8086 44.768 92.8086 44.1885C92.8086 43.6089 93.0698 43.0531 93.5346 42.6433C93.9995 42.2335 94.6299 42.0033 95.2873 42.0033L105.599 41.9013C105.924 41.8934 106.248 41.9436 106.55 42.0488C106.853 42.154 107.128 42.312 107.36 42.5134C107.591 42.7148 107.774 42.9554 107.898 43.2207C108.021 43.4861 108.082 43.7706 108.078 44.0574C108.082 44.3443 108.022 44.6293 107.902 44.8959C107.781 45.1624 107.602 45.4055 107.375 45.6111C107.148 45.8167 106.877 45.9809 106.578 46.0943C106.279 46.2076 105.957 46.2679 105.632 46.2717L95.3204 46.3737H95.2873Z" fill="#2091F9"/>
<path d="M13.4553 46.1552L3.14378 46.0532C2.48638 46.0532 1.8559 45.823 1.39105 45.4132C0.926191 45.0034 0.665039 44.4476 0.665039 43.868C0.665039 43.2885 0.926191 42.7327 1.39105 42.3229C1.8559 41.9131 2.48638 41.6829 3.14378 41.6829V41.6829L13.4553 41.7848C14.1127 41.7848 14.7432 42.0151 15.2081 42.4249C15.6729 42.8347 15.9341 43.3905 15.9341 43.97C15.9341 44.5496 15.6729 45.1054 15.2081 45.5152C14.7432 45.925 14.1127 46.1552 13.4553 46.1552V46.1552Z" fill="#2091F9"/>
<path d="M19.1072 29.1398C18.6046 29.1373 18.1147 29.0001 17.7026 28.7465L8.64687 23.3127C8.36741 23.1544 8.12688 22.9482 7.93957 22.7064C7.75226 22.4646 7.62198 22.1921 7.55649 21.905C7.49099 21.618 7.4916 21.3222 7.55829 21.0354C7.62498 20.7485 7.75638 20.4764 7.94469 20.2352C8.13301 19.994 8.37439 19.7886 8.6545 19.6313C8.93461 19.4739 9.24774 19.3678 9.57529 19.3192C9.90283 19.2706 10.2381 19.2806 10.5612 19.3485C10.8843 19.4164 11.1886 19.5408 11.4561 19.7144L20.4953 25.1628C20.9258 25.4276 21.2498 25.806 21.4206 26.2436C21.5915 26.6811 21.6004 27.1552 21.446 27.5974C21.2916 28.0397 20.982 28.4274 20.5617 28.7045C20.1414 28.9817 19.6321 29.1341 19.1072 29.1398V29.1398Z" fill="#2091F9"/>
<path d="M88.1155 29.8246C87.5958 29.8318 87.087 29.6939 86.6616 29.4307C86.2363 29.1674 85.9164 28.7923 85.7477 28.359C85.5789 27.9257 85.57 27.4564 85.7223 27.0184C85.8745 26.5803 86.1801 26.196 86.5952 25.9204L94.1141 20.7925C94.3723 20.6174 94.6671 20.4889 94.9817 20.4143C95.2963 20.3397 95.6244 20.3205 95.9474 20.3577C96.2704 20.3949 96.582 20.4878 96.8643 20.6311C97.1465 20.7745 97.394 20.9654 97.5926 21.1931C97.7911 21.4207 97.9369 21.6806 98.0215 21.958C98.1062 22.2353 98.128 22.5246 98.0858 22.8093C98.0436 23.0941 97.9382 23.3687 97.7756 23.6176C97.613 23.8664 97.3964 24.0846 97.1381 24.2596L89.6193 29.373C89.1878 29.6649 88.6594 29.8235 88.1155 29.8246Z" fill="#2091F9"/>
<path d="M74.1353 18.5344C73.6193 18.5355 73.1161 18.3927 72.6977 18.1265C72.4309 17.9597 72.2041 17.7481 72.0305 17.5038C71.8569 17.2595 71.7398 16.9873 71.6861 16.703C71.6323 16.4186 71.6429 16.1277 71.7173 15.8469C71.7916 15.5662 71.9282 15.3012 72.1193 15.0672L77.9527 7.8852C78.1345 7.63713 78.3716 7.42413 78.6494 7.25909C78.9273 7.09404 79.2402 6.98036 79.5693 6.92493C79.8984 6.8695 80.2369 6.87346 80.5642 6.93658C80.8915 6.9997 81.2009 7.12066 81.4737 7.29215C81.7465 7.46365 81.977 7.68212 82.1514 7.93436C82.3257 8.1866 82.4402 8.46739 82.488 8.75974C82.5358 9.05209 82.5158 9.34995 82.4293 9.63532C82.3428 9.92068 82.1916 10.1876 81.9848 10.42L76.1514 17.6166C75.9235 17.9009 75.6213 18.1327 75.2705 18.2924C74.9196 18.4521 74.5303 18.5351 74.1353 18.5344V18.5344Z" fill="#2091F9"/>
<path d="M34.1779 18.5344C33.7807 18.5351 33.3891 18.4522 33.0355 18.2926C32.682 18.1329 32.3768 17.9012 32.1453 17.6167L25.4527 9.40034C25.2639 9.16599 25.1293 8.90115 25.0566 8.62094C24.9839 8.34073 24.9746 8.05065 25.029 7.76724C25.0835 7.48384 25.2008 7.21267 25.3741 6.96922C25.5475 6.72577 25.7735 6.5148 26.0394 6.34836C26.3052 6.18192 26.6056 6.06327 26.9235 5.99919C27.2413 5.9351 27.5704 5.92683 27.8918 5.97486C28.2133 6.02288 28.5209 6.12625 28.7971 6.27907C29.0732 6.43189 29.3125 6.63117 29.5013 6.86552L36.1113 15.0818C36.4903 15.5552 36.6405 16.1418 36.5289 16.7128C36.4173 17.2837 36.0532 17.7922 35.5164 18.1265C35.1271 18.3783 34.6605 18.5205 34.1779 18.5344V18.5344Z" fill="#2091F9"/>
<path d="M53.7433 14.4263C53.086 14.4263 52.4555 14.1961 51.9906 13.7863C51.5258 13.3765 51.2646 12.8206 51.2646 12.2411V2.18922C51.2646 1.60967 51.5258 1.05386 51.9906 0.644056C52.4555 0.234253 53.086 0.00402832 53.7433 0.00402832C54.4007 0.00402832 55.0312 0.234253 55.4961 0.644056C55.9609 1.05386 56.222 1.60967 56.222 2.18922V12.2411C56.222 12.8206 55.9609 13.3765 55.4961 13.7863C55.0312 14.1961 54.4007 14.4263 53.7433 14.4263V14.4263Z" fill="#2091F9"/>
</svg>
