<svg width="152" height="129" viewBox="0 0 152 129" fill="none" xmlns="http://www.w3.org/2000/svg">
<path d="M96.0863 50.6984C92.3994 47.7498 88.018 45.7659 83.3474 44.9304C78.6768 44.0949 73.8679 44.4347 69.3659 45.9184C69.0264 46.0347 68.7246 46.2382 68.4917 46.5081C68.2588 46.7779 68.1032 47.1042 68.041 47.4532C67.9789 47.8022 68.0124 48.1613 68.1381 48.4933C68.2638 48.8253 68.4772 49.1181 68.7561 49.3415L81.3736 59.1789C82.4178 59.9676 83.2924 60.9532 83.9465 62.0785C84.6006 63.2038 85.0211 64.4462 85.1835 65.7333C85.3459 67.0204 85.2469 68.3266 84.8923 69.5756C84.5378 70.8246 83.9347 71.9916 83.1183 73.0085C82.3019 74.0254 81.2885 74.8719 80.137 75.4987C78.9856 76.1256 77.7192 76.5201 76.4116 76.6595C75.104 76.7988 73.7813 76.6801 72.5207 76.3104C71.26 75.9406 70.0866 75.3271 69.0688 74.5056L56.4513 64.6682C56.1693 64.4474 55.8321 64.3057 55.4753 64.2581C55.1185 64.2105 54.7553 64.2587 54.4239 64.3976C54.0926 64.5365 53.8054 64.761 53.5926 65.0475C53.3798 65.3339 53.2492 65.6716 53.2148 66.0251C52.8321 70.821 53.6902 75.6342 55.7088 80.0137C57.7273 84.3932 60.8402 88.1957 64.7557 91.0648C68.6713 93.9339 73.2613 95.7758 78.0957 96.4179C82.9301 97.0599 87.8507 96.4811 92.3964 94.7357L133.173 126.546C134.349 127.469 135.698 128.155 137.144 128.563C138.589 128.97 140.102 129.093 141.596 128.922C143.089 128.752 144.534 128.292 145.847 127.569C147.16 126.846 148.315 125.875 149.246 124.711V124.711C151.114 122.37 151.967 119.396 151.618 116.437C151.269 113.479 149.748 110.777 147.385 108.921L106.734 77.1886C107.553 72.2363 106.995 67.1577 105.12 62.493C103.245 57.8284 100.123 53.7523 96.0863 50.6984V50.6984Z" fill="#2091F9"/>
<path d="M43.2708 25.75C39.5818 26.1691 36.1019 27.6583 33.2717 30.029C30.4415 32.3998 28.3883 35.5454 27.3721 39.0677C26.3558 42.5899 26.4222 46.3304 27.5629 49.8154C28.7036 53.3004 30.8672 56.3732 33.7798 58.6448C36.6925 60.9164 40.2231 62.2845 43.9246 62.5759C47.6262 62.8674 51.3322 62.0691 54.5734 60.2821C57.8146 58.495 60.4453 55.7997 62.1322 52.5373C63.8191 49.275 64.4865 45.5923 64.0498 41.9556C63.4659 37.0925 60.9509 32.656 57.0559 29.6183C53.161 26.5807 48.2038 25.1896 43.2708 25.75V25.75ZM46.8825 56.3264C44.4233 56.616 41.9322 56.179 39.7251 55.071C37.5179 53.9629 35.694 52.2336 34.4845 50.1022C33.275 47.9708 32.7343 45.5332 32.9309 43.0984C33.1276 40.6637 34.0528 38.3413 35.5892 36.4256C37.1257 34.5099 39.2042 33.0872 41.5614 32.3377C43.9186 31.5882 46.4484 31.5457 48.8301 32.2156C51.2118 32.8855 53.3382 34.2376 54.9399 36.1006C56.5416 37.9636 57.5464 40.2536 57.8271 42.6804C58.2016 45.9196 57.2606 49.1733 55.2098 51.7304C53.159 54.2875 50.1651 55.9398 46.8825 56.3264V56.3264Z" fill="#2091F9"/>
<path d="M52.4329 80.4421L45.1469 81.2748L42.7704 73.2413L40.7691 72.9638C38.4673 72.6172 36.2155 72.0012 34.0616 71.1289L32.2636 70.4196L25.8219 76.1556L18.3014 70.2809L22.476 62.7871L21.3659 61.2452C20.0194 59.4322 18.9011 57.4647 18.0356 55.3859L17.3008 53.5356L8.65455 53.1193L7.54446 43.7289L15.878 41.5086L16.1594 39.5041C16.5162 37.2352 17.1406 35.0151 18.02 32.8892L18.7392 31.0852L12.9855 24.9175L19.0519 17.47L26.4786 21.4481L28.0421 20.3688C29.8733 19.0386 31.8635 17.9355 33.9678 17.0845L35.844 16.3444L36.2662 7.83297L45.8505 6.72278L48.2426 14.7254L50.1814 15.0337C52.4453 15.4374 54.6578 16.0837 56.7794 16.9612L58.5618 17.655L64.9878 12.027L72.6334 18.0405L68.3963 25.4417L69.5064 27.0607C70.8464 28.8313 71.9402 30.7708 72.7585 32.8275L73.509 34.6778L82.1552 35.0942L83.1402 43.5439L89.535 44.3303L87.7526 29.1886L77.7617 28.6952C77.1744 27.4312 76.506 26.2055 75.7604 25.0254L80.623 16.514L64.8159 3.97816L57.2797 10.5005C55.9312 10.038 54.5585 9.64685 53.1677 9.32863L50.4003 0L30.3092 2.31288L29.8245 12.1658C28.541 12.776 27.2981 13.4661 26.1033 14.2319L17.4571 9.60618L4.73014 25.195L11.5158 32.4575C11.0442 33.8114 10.6526 35.1912 10.3431 36.5898L0.711914 39.1494L3.05718 59.0094L13.048 59.4874C13.6707 60.7711 14.3703 62.0171 15.1431 63.2188L10.2806 71.8845L26.0877 84.2198L33.5456 77.5433C34.9372 78.0206 36.3575 78.4119 37.7984 78.7152L40.5502 87.9667L54.9188 86.3477C54.0902 84.4974 53.2146 82.4004 52.4329 80.4421Z" fill="#2091F9"/>
</svg>
