<svg width="142" height="121" viewBox="0 0 142 121" fill="none" xmlns="http://www.w3.org/2000/svg">
<g clip-path="url(#clip0_108_933)">
<path d="M45.7859 55.5327C44.6426 54.1122 43.1756 52.9831 41.5063 52.2387C39.9173 51.4645 38.1765 51.0473 36.4074 51.0166C35.5466 51.018 34.6876 51.0921 33.8395 51.2384C33.0108 51.3722 32.2153 51.6613 31.4951 52.0905C30.8041 52.5061 30.208 53.0608 29.7451 53.719C29.2476 54.4763 29.0005 55.3693 29.0385 56.2731C29.0102 57.0512 29.2039 57.8213 29.5972 58.4944C30.0156 59.1308 30.576 59.6626 31.2349 60.0483C32.0485 60.5385 32.9086 60.9479 33.8028 61.2703C34.7957 61.6404 35.9113 62.0229 37.1496 62.4177C38.9367 63.0105 40.7979 63.6643 42.7333 64.3791C44.6233 65.0716 46.403 66.0317 48.0174 67.2297C49.6128 68.4236 50.9536 69.9211 51.9618 71.6352C53.0679 73.6383 53.6088 75.9017 53.5272 78.1857C53.596 80.8842 53.0227 83.5607 51.8538 85.9969C50.7913 88.1304 49.2509 89.9931 47.3513 91.4419C45.4129 92.8993 43.2152 93.9794 40.8737 94.6253C38.4289 95.3177 35.8988 95.6665 33.3569 95.6616C29.6207 95.6678 25.914 95.0032 22.4151 93.6996C19.098 92.5245 16.0938 90.6128 13.6309 88.1097L21.9676 79.6703C23.366 81.3348 25.1041 82.6847 27.0666 83.6306C29.0068 84.6513 31.1633 85.1977 33.358 85.2248C34.2838 85.2269 35.2071 85.1276 36.111 84.9284C36.946 84.756 37.7411 84.4296 38.4553 83.9662C39.1308 83.5176 39.6814 82.9064 40.0559 82.1895C40.4723 81.364 40.6763 80.4486 40.6496 79.5253C40.6775 78.628 40.4175 77.7451 39.9074 77.0044C39.3318 76.2423 38.6107 75.6006 37.7855 75.1161C36.7049 74.4755 35.5571 73.9545 34.3626 73.5622C32.9951 73.0933 31.444 72.5871 29.7095 72.0438C28.0226 71.5012 26.37 70.8584 24.7605 70.1189C23.1794 69.4003 21.722 68.4383 20.4421 67.2683C19.1543 66.0772 18.1176 64.6431 17.3922 63.0497C16.5734 61.1451 16.1802 59.0863 16.2397 57.0157C16.164 54.4106 16.7797 51.8316 18.0249 49.5385C19.1801 47.5049 20.7837 45.7581 22.7152 44.4296C24.7049 43.073 26.9232 42.0826 29.2646 41.5055C31.6725 40.8913 34.1483 40.5803 36.6341 40.5798C39.7441 40.6034 42.8274 41.1542 45.7514 42.2083C48.7688 43.2451 51.5422 44.8825 53.9024 47.0208L45.7859 55.5327Z" fill="#003256"/>
<path d="M74.518 45.688C74.5245 46.5939 74.3339 47.4905 73.9593 48.3162C73.6036 49.1076 73.0988 49.8239 72.4722 50.4264C71.8262 51.0344 71.0678 51.5122 70.239 51.8331C69.3748 52.1775 68.452 52.3534 67.521 52.3512C66.5999 52.3755 65.6833 52.2142 64.8264 51.8771C63.9696 51.5399 63.1901 51.0338 62.5349 50.3893C61.8909 49.7868 61.3797 49.0579 61.0335 48.2488C60.6873 47.4396 60.5137 46.5678 60.5236 45.6885C60.5212 44.8107 60.6988 43.9416 61.0456 43.1343C61.3831 42.3323 61.8912 41.6125 62.5349 41.0242C63.1932 40.4227 63.948 39.9349 64.7681 39.581C65.6362 39.2051 66.5743 39.0158 67.521 39.0252C68.452 39.0235 69.3747 39.1994 70.239 39.5434C71.0675 39.8648 71.8258 40.3425 72.4722 40.9501C73.0987 41.5527 73.6035 42.2689 73.9593 43.0602C74.3336 43.8859 74.5242 44.7823 74.518 45.688ZM61.417 94.3298V57.4585H73.623V94.3287L61.417 94.3298Z" fill="#003256"/>
<path d="M106.523 52.7208V94.3289H93.7949V52.7208H78.9082V41.9109H121.41V52.7208H106.523Z" fill="#00AF6A"/>
<path d="M127.215 94.3289V41.9109H140.018V94.3289H127.215Z" fill="#00AF6A"/>
<path d="M15.0547 71.467C12.694 66.1312 11.4754 60.3651 11.4764 54.5355C11.4764 43.3427 15.9465 32.6084 23.9034 24.6939C31.8603 16.7794 42.6522 12.333 53.9049 12.333C61.6611 12.3337 69.2684 14.4507 75.8988 18.4536C82.5292 22.4565 87.9286 28.1919 91.5093 35.0354H104.112C100.166 24.9844 93.2631 16.3515 84.3056 10.265C75.3481 4.17862 64.7529 0.921921 53.9049 0.920654C39.6099 0.920654 25.9004 6.56907 15.7923 16.6233C5.68419 26.6775 0.00553288 40.314 0.00553288 54.5328C-0.00519202 63.3013 2.15656 71.9374 6.29963 79.6771L15.0547 71.467Z" fill="#00AF6A"/>
<path d="M28.0932 120.205C26.9435 120.703 25.6991 120.948 24.4452 120.923C23.2583 120.936 22.0796 120.726 20.97 120.307C19.9366 119.92 18.9946 119.325 18.2029 118.56C17.4113 117.794 16.787 116.874 16.3692 115.857C15.478 113.613 15.4824 111.115 16.3816 108.874C16.808 107.859 17.445 106.946 18.251 106.193C19.0607 105.446 20.0124 104.868 21.0499 104.493C23.2636 103.698 25.6878 103.702 27.8989 104.504C28.933 104.858 29.8602 105.467 30.5941 106.273L27.9329 108.92C27.5671 108.419 27.0658 108.032 26.4873 107.802C25.9057 107.562 25.282 107.437 24.652 107.437C24.0016 107.429 23.3568 107.557 22.7594 107.813C22.1992 108.054 21.6951 108.407 21.2787 108.851C20.8586 109.305 20.5315 109.836 20.3157 110.415C20.0809 111.046 19.9643 111.715 19.9719 112.389C19.9638 113.073 20.0802 113.754 20.3157 114.397C20.5264 114.975 20.8498 115.506 21.2674 115.96C21.6763 116.396 22.1729 116.743 22.7249 116.976C23.3123 117.224 23.9449 117.348 24.5829 117.34C25.2908 117.357 25.992 117.201 26.6249 116.885C27.1788 116.604 27.6584 116.197 28.0247 115.697L30.755 118.254C30.0195 119.087 29.1115 119.753 28.0932 120.205Z" fill="#003256"/>
<path d="M44.0616 114.761C44.0746 115.629 43.9026 116.489 43.5569 117.285C43.2387 118.013 42.7697 118.666 42.1804 119.202C41.591 119.732 40.9062 120.146 40.1621 120.423C38.5807 121.001 36.8442 121.001 35.2628 120.423C34.5168 120.15 33.8312 119.735 33.244 119.202C32.6608 118.664 32.1961 118.011 31.8793 117.285C31.5337 116.489 31.3617 115.629 31.3746 114.761C31.3612 113.899 31.5333 113.043 31.8793 112.252C32.1966 111.533 32.6614 110.887 33.244 110.357C33.8311 109.832 34.5174 109.429 35.2628 109.17C36.8494 108.622 38.5755 108.622 40.1621 109.17C40.9057 109.432 41.5912 109.835 42.1804 110.357C42.7691 110.885 43.2383 111.53 43.5569 112.252C43.9031 113.043 44.0751 113.899 44.0616 114.761ZM40.4374 114.761C40.4372 114.396 40.3752 114.033 40.2538 113.688C40.1374 113.349 39.958 113.036 39.7248 112.764C39.4891 112.492 39.2007 112.271 38.8768 112.113C38.35 111.853 37.7509 111.776 37.175 111.894C36.5991 112.012 36.0794 112.318 35.6985 112.764C35.4728 113.037 35.3018 113.35 35.1948 113.688C34.9644 114.384 34.9644 115.136 35.1948 115.833C35.306 116.178 35.481 116.499 35.7109 116.78C35.9412 117.063 36.231 117.293 36.56 117.453C36.9274 117.619 37.3263 117.704 37.7297 117.704C38.1332 117.704 38.532 117.619 38.8995 117.453C39.228 117.292 39.5177 117.062 39.7486 116.78C39.9778 116.498 40.1527 116.177 40.2647 115.833C40.3789 115.487 40.4374 115.125 40.4379 114.761H40.4374Z" fill="#003256"/>
<path d="M53.9498 120.49V114.283C53.9511 113.976 53.9242 113.671 53.8694 113.37C53.8236 113.102 53.7342 112.844 53.6049 112.606C53.4846 112.387 53.306 112.205 53.0888 112.081C52.8322 111.943 52.5434 111.876 52.2521 111.887C51.9464 111.88 51.6435 111.947 51.369 112.081C51.1195 112.208 50.9035 112.392 50.7385 112.618C50.5655 112.855 50.4375 113.122 50.3606 113.405C50.276 113.705 50.2335 114.016 50.2343 114.329V120.491H46.4476V109.125H50.0956V110.7H50.1415C50.2916 110.44 50.4729 110.198 50.6813 109.981C50.9083 109.741 51.1713 109.537 51.4608 109.377C51.7696 109.204 52.0967 109.066 52.4362 108.965C52.8005 108.856 53.1791 108.802 53.5595 108.804C54.2335 108.785 54.9024 108.926 55.5104 109.216C56.0178 109.466 56.4609 109.829 56.8059 110.277C57.1407 110.723 57.3826 111.231 57.5174 111.771C57.6606 112.322 57.7331 112.89 57.7333 113.459V120.488L53.9498 120.49Z" fill="#003256"/>
<path d="M67.2997 112.48C66.9801 112.182 66.6159 111.936 66.2201 111.75C65.8127 111.554 65.3658 111.452 64.9132 111.454C64.5769 111.45 64.2439 111.52 63.9378 111.659C63.7985 111.716 63.6806 111.815 63.6005 111.941C63.5204 112.068 63.4821 112.217 63.4908 112.366C63.4879 112.518 63.5343 112.667 63.6231 112.79C63.7119 112.913 63.8384 113.005 63.9837 113.051C64.5028 113.244 65.0361 113.396 65.5788 113.507C66.0203 113.602 66.4535 113.732 66.8743 113.895C67.2991 114.056 67.6974 114.279 68.056 114.557C68.4063 114.829 68.6956 115.171 68.9051 115.561C69.1299 115.998 69.2413 116.485 69.2289 116.976C69.2545 117.571 69.123 118.162 68.8472 118.691C68.5715 119.219 68.1613 119.666 67.6576 119.988C67.1763 120.298 66.6441 120.522 66.0851 120.65C65.5142 120.786 64.9292 120.855 64.3421 120.856C63.41 120.856 62.4841 120.705 61.6005 120.411C60.7637 120.149 59.9982 119.7 59.3624 119.098L61.4736 116.885C61.8266 117.263 62.2466 117.572 62.7124 117.798C63.1964 118.04 63.7309 118.165 64.2725 118.163C64.587 118.161 64.897 118.088 65.1783 117.948C65.3223 117.881 65.4423 117.771 65.5224 117.635C65.6024 117.498 65.6387 117.34 65.6263 117.183C65.6268 117.012 65.574 116.846 65.4752 116.707C65.3765 116.568 65.2366 116.463 65.0752 116.407C64.5189 116.18 63.9431 116.005 63.3548 115.882C62.9492 115.789 62.5507 115.667 62.1624 115.517C61.7749 115.372 61.4143 115.163 61.0952 114.901C60.7766 114.636 60.5153 114.311 60.327 113.943C60.1174 113.517 60.0147 113.047 60.028 112.573C60.0091 111.962 60.1602 111.358 60.4647 110.827C60.7468 110.357 61.1305 109.956 61.588 109.652C62.0555 109.344 62.5718 109.116 63.1151 108.979C63.6578 108.836 64.2168 108.763 64.7783 108.761C65.6317 108.761 66.4796 108.896 67.2905 109.161C68.0636 109.402 68.773 109.811 69.3671 110.359L67.2997 112.48Z" fill="#003256"/>
<path d="M78.9341 120.49V118.915H78.8882C78.7438 119.183 78.562 119.429 78.3484 119.645C78.1186 119.879 77.8556 120.078 77.5679 120.236C77.2555 120.41 76.9245 120.547 76.5811 120.647C76.2131 120.755 75.8312 120.81 75.4475 120.808C74.7773 120.829 74.1121 120.688 73.5085 120.398C73.0062 120.145 72.5672 119.783 72.2238 119.339C71.8903 118.897 71.6484 118.392 71.5123 117.856C71.3676 117.301 71.295 116.729 71.2964 116.156V109.125H75.082V115.287C75.0809 115.593 75.1039 115.898 75.1506 116.2C75.191 116.472 75.2807 116.735 75.4151 116.976C75.5371 117.197 75.715 117.382 75.9312 117.513C76.191 117.654 76.4847 117.721 76.7803 117.707C77.0725 117.723 77.3637 117.664 77.6266 117.536C77.8894 117.408 78.1152 117.216 78.2826 116.977C78.6318 116.475 78.8124 115.876 78.7986 115.265V109.125H82.5616V120.49H78.9341Z" fill="#003256"/>
<path d="M85.5413 120.491V103.238H89.3738V120.491H85.5413Z" fill="#003256"/>
<path d="M96.4162 111.909V116.262C96.3861 116.685 96.495 117.107 96.7266 117.464C96.8681 117.612 97.0423 117.725 97.2354 117.795C97.4285 117.864 97.6352 117.888 97.8391 117.864C98.0352 117.864 98.231 117.848 98.4248 117.818C98.6023 117.796 98.7761 117.75 98.9414 117.682L98.9873 120.42C98.6654 120.527 98.3354 120.607 98.0005 120.66C97.6065 120.728 97.2074 120.763 96.8076 120.763C96.1533 120.78 95.5011 120.683 94.8805 120.477C94.3996 120.313 93.9688 120.029 93.6292 119.653C93.3093 119.282 93.078 118.844 92.9528 118.372C92.8092 117.831 92.7398 117.273 92.7466 116.713V111.908H90.9113V109.124H92.7234V106.135H96.4173V109.124H99.1017V111.908L96.4162 111.909Z" fill="#003256"/>
<path d="M112.98 114.762C112.993 115.629 112.821 116.489 112.475 117.285C112.157 118.013 111.688 118.666 111.098 119.202C110.509 119.732 109.824 120.146 109.081 120.423C107.499 121.001 105.763 121.001 104.182 120.423C103.436 120.15 102.75 119.735 102.162 119.202C101.58 118.664 101.115 118.011 100.798 117.285C100.452 116.489 100.28 115.629 100.293 114.762C100.28 113.899 100.452 113.043 100.798 112.252C101.115 111.533 101.58 110.888 102.162 110.357C102.75 109.832 103.436 109.429 104.182 109.171C105.768 108.622 107.494 108.622 109.081 109.171C109.824 109.433 110.509 109.836 111.098 110.357C111.687 110.885 112.156 111.531 112.475 112.252C112.821 113.043 112.994 113.899 112.98 114.762ZM109.356 114.762C109.356 114.396 109.294 114.033 109.172 113.688C109.056 113.349 108.876 113.036 108.643 112.764C108.408 112.492 108.119 112.271 107.795 112.113C107.268 111.853 106.669 111.776 106.093 111.894C105.518 112.012 104.998 112.318 104.617 112.764C104.391 113.037 104.22 113.351 104.113 113.688C103.883 114.384 103.883 115.136 104.113 115.833C104.224 116.178 104.399 116.499 104.629 116.78C104.86 117.063 105.149 117.293 105.478 117.453C105.846 117.619 106.245 117.705 106.648 117.705C107.052 117.705 107.45 117.619 107.818 117.453C108.146 117.292 108.436 117.063 108.667 116.78C108.896 116.499 109.071 116.177 109.183 115.833C109.297 115.487 109.355 115.126 109.356 114.762Z" fill="#003256"/>
<path d="M122.776 112.206C122.615 112.162 122.45 112.131 122.283 112.115C122.123 112.1 121.966 112.092 121.812 112.092C121.372 112.078 120.935 112.172 120.539 112.365C120.221 112.526 119.94 112.751 119.714 113.025C119.512 113.275 119.36 113.561 119.267 113.867C119.182 114.125 119.136 114.393 119.128 114.664V120.49H115.366V109.138H118.991V110.781H119.037C119.32 110.208 119.747 109.718 120.276 109.357C120.823 108.986 121.472 108.793 122.134 108.805C122.284 108.805 122.433 108.813 122.582 108.828C122.702 108.839 122.821 108.861 122.937 108.896L122.776 112.206Z" fill="#003256"/>
<path d="M124.497 120.49V109.126H128.26V120.49H124.497ZM127.365 107.437H124.521L126.906 104.15H130.716L127.365 107.437Z" fill="#003256"/>
<path d="M131.083 110.677C131.755 110.038 132.557 109.548 133.434 109.239C134.313 108.922 135.24 108.76 136.175 108.76C137.004 108.74 137.83 108.859 138.619 109.114C139.249 109.325 139.809 109.704 140.238 110.209C140.678 110.758 140.987 111.397 141.144 112.081C141.349 112.959 141.445 113.86 141.429 114.762V120.491H137.989V119.281H137.921C137.606 119.774 137.145 120.157 136.601 120.377C135.997 120.638 135.345 120.771 134.686 120.765C134.206 120.762 133.729 120.701 133.264 120.582C132.784 120.465 132.33 120.264 131.921 119.989C131.507 119.706 131.166 119.331 130.923 118.894C130.648 118.374 130.514 117.792 130.533 117.205C130.498 116.482 130.74 115.772 131.21 115.218C131.689 114.698 132.287 114.299 132.953 114.054C133.717 113.769 134.516 113.585 135.328 113.507C136.174 113.417 137.024 113.372 137.875 113.37V113.188C137.893 112.948 137.848 112.706 137.744 112.488C137.64 112.27 137.48 112.083 137.281 111.944C136.844 111.667 136.332 111.528 135.813 111.545C135.278 111.545 134.749 111.661 134.264 111.887C133.8 112.094 133.371 112.371 132.991 112.708L131.083 110.677ZM137.989 115.537H137.505C137.094 115.537 136.676 115.557 136.256 115.595C135.874 115.625 135.497 115.697 135.131 115.81C134.828 115.902 134.549 116.062 134.317 116.278C134.21 116.383 134.125 116.509 134.069 116.649C134.013 116.788 133.988 116.938 133.994 117.087C133.988 117.281 134.04 117.472 134.142 117.636C134.239 117.784 134.368 117.909 134.52 118C134.684 118.096 134.862 118.161 135.049 118.194C135.238 118.232 135.43 118.251 135.622 118.252C135.942 118.273 136.264 118.229 136.566 118.121C136.868 118.013 137.144 117.844 137.377 117.624C137.586 117.394 137.747 117.126 137.852 116.834C137.956 116.543 138.002 116.233 137.985 115.924L137.989 115.537Z" fill="#003256"/>
</g>
<defs>
<clipPath id="clip0_108_933">
<rect width="141.429" height="120" fill="white" transform="translate(0.000244141 0.92334)"/>
</clipPath>
</defs>
</svg>
